<svg xmlns="http://www.w3.org/2000/svg" width="289.617" height="286.4" viewBox="0 0 289.617 286.4">
  <g id="Group_11755" data-name="Group 11755" transform="translate(-402 -218.966)" opacity="0.8">
    <path id="Path_16958" data-name="Path 16958" d="M378.891,216.849c-9.348-9.482-25.372-8.947-35.655,1.2s-11.084,26.173-1.736,35.655a23.424,23.424,0,0,0,16.691,6.811,26.276,26.276,0,0,0,15.089-4.807c-.8-1.069-1.736-2.136-2.4-3.205a23.831,23.831,0,0,1-11.884,4.006,19.418,19.418,0,0,1-14.555-5.608,19.2,19.2,0,0,1-5.342-14.555,23.392,23.392,0,0,1,22.167-21.767h.666a17.575,17.575,0,0,1,7.612,1.335,18.13,18.13,0,0,1,6.277,4.272,19.2,19.2,0,0,1,5.342,14.555v.4c.535.266,1.2.535,1.736.8a14.5,14.5,0,0,0,2.27.666,23.511,23.511,0,0,0-6.274-19.762Z" transform="translate(215.742 108.708)" fill="#bfbfbf"/>
    <path id="Path_16959" data-name="Path 16959" d="M401.361,264.27a31.4,31.4,0,0,0,3.872-7.211c-1.2-.666-2.536-1.335-3.74-2a27.172,27.172,0,0,1-3.74,7.343c1.2.669,2.4,1.338,3.608,1.87Z" transform="translate(194.475 93.47)"/>
    <path id="Path_16960" data-name="Path 16960" d="M431.263,297.636c2.937-3.205,5.608-6.411,8.279-9.614-1.069-.935-2.136-1.736-3.071-2.671-2.536,3.205-5.342,6.277-8.012,9.348.935.935,1.87,2,2.805,2.937Z" transform="translate(184.073 83.207)"/>
    <path id="Path_16961" data-name="Path 16961" d="M378.9,115.621l-.134-.535-1.736-1.736h-.8c-11.084-.935-96.547-4.541-160.641,87.33-2.136-1.47-6.677-4.006-14.02-3.337-13.62,1.2-37.122,13.754-71.176,65.966l3.071,2.536c13.488-12.553,51.011-44.468,62.895-41.262a3.835,3.835,0,0,1,2.805,2.937A323.519,323.519,0,0,0,184.6,257.965l-.535.935,19.225,19.5-9.482,8.947,7.211,7.343,9.482-8.947,18.027,18.427,1.069,1.069,1.2-.266c10.949-4.407,21.1-9.748,30.58-13.754.134-.134.134-.266.266-.4a3.849,3.849,0,0,1,2.805,2.805c3.071,12.019-29.51,48.875-42.33,62.094l2.536,3.069c52.747-33.25,65.7-56.353,67.168-69.972.8-7.343-1.6-12.153-3.071-14.154a237.122,237.122,0,0,0,36.988-30.58c-.8-.8-1.6-1.736-2.4-2.536a1.836,1.836,0,0,0-.535-.4,216.856,216.856,0,0,1-24.972,22.032,286.527,286.527,0,0,1-47,28.575l-4.006-4.006c-.935.935-2,1.87-3.071,2.805l3.071,3.071c-5.207,2.4-10.549,4.673-16.291,6.943l-17.36-17.626,11.884-11.618,9.079,9.079c.8-1.069,1.736-2.136,2.536-3.205l-8.679-8.679L256.3,240.6l-7.211-7.343-28.309,27.909-22.833-23.236c-.666-1.069,5.076-9.614,5.742-10.949,2.136-3.74,4.272-7.478,6.543-11.084,4.541-7.343,9.348-14.421,14.555-21.366a218.451,218.451,0,0,1,35.12-36.856,210.313,210.313,0,0,1,20.966-14.689c3.74-2.27,7.478-4.407,11.349-6.677,2.4-1.335,9.748-5.742,10.149-4.807,0,0,3.471,3.74,4.407,4.807,1.6,1.87,3.337,3.606,5.076,5.342,3.337,3.471,6.677,6.811,10.014,10.149,6.677,6.677,13.62,13.219,20.3,19.9l.4.4c1.47,1.335,2.805,2.805,4.272,4.14,4.006,4.14,8.012,8.146,12.019,12.284,1.2,1.2-8.679,16.825-9.748,18.561-2.536,4.14-5.207,8.146-8.012,12.153,1.2.666,2.27,1.47,3.471,2.27,36.063-49.4,34.862-97.744,34.327-105.89ZM285.423,277.2c.935,1.2,3.071,5.076,2.27,11.618-1.335,11.484-11.75,30.58-51.677,57.954,14.02-15.756,35.252-42.2,32.315-53.948a6.981,6.981,0,0,0-2.536-4.006q10.411-5.61,19.628-11.618Zm-61.96-13.219,25.5-25.1,1.6,1.736-25.5,25.1-2.805,2.805L210.375,280.14l-1.335,1.47-1.47,1.335-6.677,6.142-1.6-1.6,6.677-6.142,2.805-2.805,11.884-11.75Zm-5.61-.134-11.884,11.618-17.226-17.494c2.4-5.608,4.807-11.084,7.343-16.291ZM201.3,223.119a6.98,6.98,0,0,0-4.006-2.536c-11.75-3.205-38.458,17.626-54.483,31.246,28.043-39.393,47.27-49.407,58.889-50.61,6.411-.666,10.149,1.47,11.618,2.536-4.14,6.011-8.146,12.553-12.019,19.364Zm159.576-37.925-54.348-55.283-.134-.134c33.116-13.754,60.49-13.219,68.24-12.685.532,7.746.532,35.12-13.754,68.1Z" transform="translate(285.049 141.571)"/>
    <path id="Path_16962" data-name="Path 16962" d="M297.032,368.96a8.769,8.769,0,0,0-1.069,1.2q-.8,1-1.6,2l2.136,2.27c1.069-.935,2.136-1.87,3.071-2.805Z" transform="translate(229.501 54.884)"/>
    <path id="Path_16963" data-name="Path 16963" d="M144.787,396.179c10.683-10.414,21.767-20.162,32.45-30.58,1.87-1.736-.935-4.673-2.805-2.805-10.683,10.414-21.767,20.162-32.45,30.58C140.112,395.11,142.917,397.915,144.787,396.179Z" transform="translate(281.33 57.175)" fill="#124eff"/>
    <path id="Path_16964" data-name="Path 16964" d="M179.856,385.012c-23.1,22.433-46.07,44.868-69.172,67.3-1.87,1.736.935,4.673,2.805,2.805,23.1-22.433,46.07-44.868,69.172-67.3C184.529,386.079,181.723,383.142,179.856,385.012Z" transform="translate(291.933 49.649)" fill="#124eff"/>
    <path id="Path_16965" data-name="Path 16965" d="M216.127,411.262c-15.089,14.689-30.445,29.11-45.669,43.8-1.87,1.736.935,4.673,2.805,2.805,15.089-14.689,30.445-29.11,45.669-43.8C220.8,412.329,218,409.392,216.127,411.262Z" transform="translate(271.683 40.757)" fill="#124eff"/>
    <path id="Path_16966" data-name="Path 16966" d="M235.809,149.636l1.069,2c0,.134.134.134.266.266l2,1.069a.626.626,0,0,1,0,1.069l-2,1.069c-.134,0-.134.134-.266.266l-1.069,2a.626.626,0,0,1-1.069,0l-1.069-2c0-.134-.134-.134-.266-.266l-2-1.069a.626.626,0,0,1,0-1.069l2-1.069c.134,0,.134-.134.266-.266l1.069-2A.558.558,0,0,1,235.809,149.636Z" transform="translate(250.931 129.318)"/>
    <path id="Path_16967" data-name="Path 16967" d="M377.779,59.42l1.069,2c0,.134.134.134.266.266l2,1.069a.626.626,0,0,1,0,1.069l-2,1.069c-.134,0-.134.134-.266.266l-1.069,2a.626.626,0,0,1-1.069,0l-1.069-2c0-.134-.134-.134-.266-.266l-2-1.069a.626.626,0,0,1,0-1.069l2-1.069c.134,0,.134-.134.266-.266l1.069-2c.134-.4.8-.4,1.069,0Z" transform="translate(202.836 159.846)"/>
    <path id="Path_16968" data-name="Path 16968" d="M445.5,371.277l.8,1.47a.132.132,0,0,0,.134.134l1.47.8a.5.5,0,0,1,0,.8l-1.47.8a.132.132,0,0,0-.134.134l-.8,1.47a.5.5,0,0,1-.8,0l-.8-1.47a.132.132,0,0,0-.134-.134l-1.47-.8a.5.5,0,0,1,0-.8l1.47-.8a.132.132,0,0,0,.134-.134l.8-1.47C444.961,371.008,445.361,371.008,445.5,371.277Z" transform="translate(179.455 54.167)"/>
    <path id="Path_16969" data-name="Path 16969" d="M245.641,198.417l.666,1.335a.132.132,0,0,0,.134.134l1.2.666a.378.378,0,0,1,0,.666l-1.2.666-.134.134-.666,1.335a.378.378,0,0,1-.666,0l-.666-1.335a.132.132,0,0,0-.134-.134l-1.2-.666a.378.378,0,0,1,0-.666l1.2-.666.134-.134.666-1.335A.376.376,0,0,1,245.641,198.417Z" transform="translate(246.977 112.726)"/>
    <path id="Path_16970" data-name="Path 16970" d="M300.5,136.817l.666,1.335a.132.132,0,0,0,.134.134l1.335.8c.266.134.266.535,0,.8l-1.335.8a.132.132,0,0,0-.134.134l-.666,1.335a.378.378,0,0,1-.666,0l-.666-1.335a.132.132,0,0,0-.134-.134l-1.335-.8c-.266-.134-.266-.535,0-.8l1.335-.8a.132.132,0,0,0,.134-.134l.666-1.335C299.833,136.548,300.233,136.548,300.5,136.817Z" transform="translate(228.437 133.594)"/>
    <path id="Path_16971" data-name="Path 16971" d="M484.741,299.839l.666,1.2.134.134,1.2.666a.378.378,0,0,1,0,.666l-1.2.666-.134.134-.666,1.2a.378.378,0,0,1-.666,0l-.666-1.2-.134-.134-1.2-.666a.378.378,0,0,1,0-.666l1.2-.666.134-.134.666-1.2A.611.611,0,0,1,484.741,299.839Z" transform="translate(165.979 78.333)"/>
    <path id="Path_16972" data-name="Path 16972" d="M534.421,171.4l.666,1.2.134.134,1.2.666a.378.378,0,0,1,0,.666l-1.2.666-.134.134-.666,1.2a.378.378,0,0,1-.666,0l-.666-1.2-.134-.134-1.2-.666a.378.378,0,0,1,0-.666l1.2-.666.134-.134.666-1.2A.591.591,0,0,1,534.421,171.4Z" transform="translate(149.149 121.845)"/>
    <path id="Path_16973" data-name="Path 16973" d="M450.343,79.668l.666,1.2.134.134,1.069.666a.378.378,0,0,1,0,.666l-1.2.666-.134.134-.666,1.2a.378.378,0,0,1-.666,0l-.666-1.2L448.744,83l-1.2-.666a.378.378,0,0,1,0-.666l1.2-.666.134-.134.666-1.2c.263-.266.664-.266.8,0Z" transform="translate(177.676 152.953)"/>
    <path id="Path_16974" data-name="Path 16974" d="M497.328,343.208l.666,1.069.134.134,1.069.666a.378.378,0,0,1,0,.666l-1.069.666-.134.134-.666,1.069a.378.378,0,0,1-.666,0L496,346.545l-.134-.134-1.069-.666a.378.378,0,0,1,0-.666l1.069-.666.134-.134.666-1.069A.378.378,0,0,1,497.328,343.208Z" transform="translate(161.67 63.675)"/>
    <path id="Path_16975" data-name="Path 16975" d="M168.359,210.886l1.069,2c0,.134.134.134.266.266l2,1.069a.626.626,0,0,1,0,1.069l-2,1.069c-.134,0-.134.134-.266.266l-1.069,2a.626.626,0,0,1-1.069,0l-1.069-2c0-.134-.134-.134-.266-.266l-2-1.069a.626.626,0,0,1,0-1.069l2-1.069c.134,0,.134-.134.266-.266l1.069-2C167.424,210.486,168.09,210.486,168.359,210.886Z" transform="translate(273.78 108.535)"/>
    <path id="Path_16976" data-name="Path 16976" d="M422.488,444.485l1.335,2.4c.134.134.134.266.266.266l2.4,1.335a.756.756,0,0,1,0,1.335l-2.4,1.335c-.134.134-.266.134-.266.266l-1.335,2.4a.756.756,0,0,1-1.335,0l-1.335-2.4c-.134-.134-.134-.266-.266-.266l-2.4-1.335a.756.756,0,0,1,0-1.335l2.4-1.335c.134-.134.266-.134.266-.266l1.335-2.4A.756.756,0,0,1,422.488,444.485Z" transform="translate(188.041 29.435)"/>
    <path id="Path_16977" data-name="Path 16977" d="M540.149,278.736l1.069,2c0,.134.134.134.266.266l2,1.069a.626.626,0,0,1,0,1.069l-2,1.069c-.134,0-.134.134-.266.266l-1.069,2a.626.626,0,0,1-1.069,0l-1.069-2c0-.134-.134-.134-.266-.266l-2-1.069a.626.626,0,0,1,0-1.069l2-1.069c.134,0,.134-.134.266-.266l1.069-2A.626.626,0,0,1,540.149,278.736Z" transform="translate(147.831 85.55)"/>
    <path id="Path_16978" data-name="Path 16978" d="M533.889,59.42l1.069,2c0,.134.134.134.266.266l2,1.069a.626.626,0,0,1,0,1.069l-2,1.069c-.134,0-.134.134-.266.266l-1.069,2a.626.626,0,0,1-1.069,0l-1.069-2c0-.134-.134-.134-.266-.266l-2-1.069a.626.626,0,0,1,0-1.069l2-1.069c.134,0,.134-.134.266-.266l1.069-2a.626.626,0,0,1,1.069,0Z" transform="translate(149.952 159.846)"/>
    <path id="Path_16979" data-name="Path 16979" d="M477.949,402.326l1.069,2c0,.134.134.134.266.266l2,1.069a.626.626,0,0,1,0,1.069l-2,1.069c-.134,0-.134.134-.266.266l-1.069,2a.626.626,0,0,1-1.069,0l-1.069-2c0-.134-.134-.134-.266-.266l-2-1.069a.626.626,0,0,1,0-1.069l2-1.069c.134,0,.134-.134.266-.266l1.069-2C477.016,401.926,477.683,401.926,477.949,402.326Z" transform="translate(168.902 43.682)"/>
    <path id="Path_16980" data-name="Path 16980" d="M267.319,87.277l1.069,2c0,.134.134.134.266.266l2,1.069a.626.626,0,0,1,0,1.069l-2,1.069c-.134,0-.134.134-.266.266l-1.069,1.87a.626.626,0,0,1-1.069,0l-1.069-2c0-.134-.134-.134-.266-.266l-2-1.069a.626.626,0,0,1,0-1.069l2-1.069c.134,0,.134-.134.266-.266l1.069-2a.706.706,0,0,1,1.069.132Z" transform="translate(240.256 150.416)"/>
    <path id="Path_16981" data-name="Path 16981" d="M425.1,146.017a107.452,107.452,0,0,1,33.917-9.748c2.536-.266,2.536-4.272,0-4.006A112.038,112.038,0,0,0,423.1,142.546c-2.27,1.069-.266,4.541,2,3.471Z" transform="translate(186.228 135.072)"/>
  </g>
</svg>
