<svg xmlns="http://www.w3.org/2000/svg" xmlns:xlink="http://www.w3.org/1999/xlink" width="210" height="74" viewBox="0 0 210 74">
  <defs>
    <clipPath id="clip-_210_x_74_">
      <rect width="210" height="74"/>
    </clipPath>
  </defs>
  <g id="_210_x_74_" data-name="210 x 74 " clip-path="url(#clip-_210_x_74_)">
    <g id="Group_11778" data-name="Group 11778" transform="translate(-10542.999 7332.303)">
      <g id="Group_11771" data-name="Group 11771" transform="translate(10590.608 -7321.077)">
        <g id="Group_11770" data-name="Group 11770" transform="translate(0 0)">
          <path id="Path_16997" data-name="Path 16997" d="M460.535,1005.522H471.1v3.966H460.535Zm3.682,18.471a6.374,6.374,0,0,1-1-3.9V999.16h3.932v20.308a2.075,2.075,0,0,0,.247,1.11.8.8,0,0,0,.724.389H471.1v4.345h-3.726A3.714,3.714,0,0,1,464.218,1023.993Z" transform="translate(-460.535 -996.036)" fill="#8c8a8d"/>
          <path id="Path_16998" data-name="Path 16998" d="M790.715,938.243h3.932v29.181h-3.932Zm10.117,17.246a4.1,4.1,0,0,0-.823-2.732,2.9,2.9,0,0,0-2.336-.968,2.832,2.832,0,0,0-2.237.892,3.683,3.683,0,0,0-.79,2.524l-.346-4.08a7,7,0,0,1,1.949-2.732,4.281,4.281,0,0,1,2.772-.949,4.913,4.913,0,0,1,4.236,2.1,10.051,10.051,0,0,1,1.505,5.93v11.954h-3.932Z" transform="translate(-777.031 -938.243)" fill="#8c8a8d"/>
          <path id="Path_16999" data-name="Path 16999" d="M1296.57,961.746a1.731,1.731,0,0,0,.313,1.11,1.072,1.072,0,0,0,.888.389h2.7v4.345H1296.8a3.707,3.707,0,0,1-3.068-1.366,6.017,6.017,0,0,1-1.094-3.852V938.443h3.932Z" transform="translate(-1260.595 -938.352)" fill="#8c8a8d"/>
          <path id="Path_17000" data-name="Path 17000" d="M1543.172,1167.868a6.568,6.568,0,0,1-2.616-3.007,11.485,11.485,0,0,1-.9-4.791v-2.22a12.937,12.937,0,0,1,.864-4.99,6.741,6.741,0,0,1,2.517-3.149,7.1,7.1,0,0,1,3.973-1.082,5.752,5.752,0,0,1,3.743,1.262,7.8,7.8,0,0,1,2.369,3.652,17.994,17.994,0,0,1,.814,5.768v1.29h-11.6v-3.321h7.946l-.017-.209a6.18,6.18,0,0,0-1-3.207,2.658,2.658,0,0,0-2.254-1.139,3.245,3.245,0,0,0-2.747,1.281,5.916,5.916,0,0,0-.971,3.634v2.5a5.075,5.075,0,0,0,1.053,3.444,3.723,3.723,0,0,0,2.961,1.2,4.617,4.617,0,0,0,1.917-.427,5.7,5.7,0,0,0,1.7-1.186l2.566,2.771a9.524,9.524,0,0,1-2.92,2.172,7.556,7.556,0,0,1-3.266.768A7.894,7.894,0,0,1,1543.172,1167.868Z" transform="translate(-1498.346 -1139.426)" fill="#8c8a8d"/>
          <path id="Path_17001" data-name="Path 17001" d="M1998.029,1005.522H2008.5v3.966h-10.475Zm3.419,18.471a6.372,6.372,0,0,1-1-3.9V999.16h3.932v20.308a2.077,2.077,0,0,0,.247,1.11.8.8,0,0,0,.724.389h3.157v4.345h-3.9A3.714,3.714,0,0,1,2001.448,1023.993Z" transform="translate(-1940.139 -996.036)" fill="#8c8a8d"/>
          <path id="Path_17002" data-name="Path 17002" d="M2324.567,941.71h3.915v4.535h-3.915Zm0,7.893h3.915v19.7h-3.915Z" transform="translate(-2252.912 -940.117)" fill="#8c8a8d"/>
          <path id="Path_17003" data-name="Path 17003" d="M2516.587,1156.367h4l-6.416,19.7h-2.863l-6.416-19.7h4l3.849,13.206Z" transform="translate(-2426.015 -1146.881)" fill="#8c8a8d"/>
          <path id="Path_17004" data-name="Path 17004" d="M2984.009,1167.868a6.572,6.572,0,0,1-2.616-3.007,11.5,11.5,0,0,1-.9-4.791v-2.22a12.932,12.932,0,0,1,.864-4.99,6.738,6.738,0,0,1,2.517-3.149,7.1,7.1,0,0,1,3.973-1.082,5.752,5.752,0,0,1,3.743,1.262,7.8,7.8,0,0,1,2.369,3.652,17.991,17.991,0,0,1,.814,5.768v1.29h-11.6v-3.321h7.945l-.016-.209a6.178,6.178,0,0,0-1-3.207,2.659,2.659,0,0,0-2.254-1.139,3.244,3.244,0,0,0-2.747,1.281,5.912,5.912,0,0,0-.971,3.634v2.5a5.071,5.071,0,0,0,1.053,3.444,3.722,3.722,0,0,0,2.961,1.2,4.621,4.621,0,0,0,1.917-.427,5.709,5.709,0,0,0,1.7-1.186l2.566,2.771a9.53,9.53,0,0,1-2.92,2.172,7.557,7.557,0,0,1-3.266.768A7.9,7.9,0,0,1,2984.009,1167.868Z" transform="translate(-2885.158 -1139.426)" fill="#8c8a8d"/>
          <path id="Path_17005" data-name="Path 17005" d="M3475.39,1148.913h4.1v19.7h-4.1Zm8.538,4.317a3.254,3.254,0,0,0-1.332-.256,2.776,2.776,0,0,0-2.3,1.015,4.391,4.391,0,0,0-.814,2.818l-.345-4.459a6.913,6.913,0,0,1,1.933-2.742,4.046,4.046,0,0,1,2.623-.977,5.073,5.073,0,0,1,2.023.389,4.438,4.438,0,0,1,1.58,1.148l-2.4,3.814A2.557,2.557,0,0,0,3483.928,1153.229Z" transform="translate(-3361.964 -1139.426)" fill="#8c8a8d"/>
          <path id="Path_17006" data-name="Path 17006" d="M3826.33,1168.56a10.88,10.88,0,0,1-2.592-.977,9.8,9.8,0,0,1-2.179-1.575l2.386-3.415a10.355,10.355,0,0,0,2.656,1.613,7,7,0,0,0,2.641.55,5.347,5.347,0,0,0,2.722-.56,1.786,1.786,0,0,0,.93-1.622,1.552,1.552,0,0,0-.46-1.224,2.527,2.527,0,0,0-1.16-.56,19.444,19.444,0,0,0-1.966-.284l-.444-.038q-.231-.019-.445-.057a.9.9,0,0,1-.132-.01.968.968,0,0,0-.132-.009,14.47,14.47,0,0,1-2.944-.636,3.889,3.889,0,0,1-1.933-1.566,5.915,5.915,0,0,1-.781-3.32,6.914,6.914,0,0,1,.781-3.425,4.982,4.982,0,0,1,2.295-2.106,8.705,8.705,0,0,1,3.718-.711,11.173,11.173,0,0,1,2.566.294,11.369,11.369,0,0,1,2.394.854,11.135,11.135,0,0,1,2.163,1.395l-2.353,3.3a10.324,10.324,0,0,0-2.426-1.271,7.071,7.071,0,0,0-2.377-.437,4.417,4.417,0,0,0-2.353.512,1.682,1.682,0,0,0-.805,1.518,1.169,1.169,0,0,0,.444.987,2.549,2.549,0,0,0,1.11.465q.667.124,1.933.256c.088.013.173.022.255.029s.167.016.255.028h.116a.493.493,0,0,1,.131.019,15.5,15.5,0,0,1,3.142.626,4.219,4.219,0,0,1,2.123,1.66,6.272,6.272,0,0,1,.871,3.615,6.969,6.969,0,0,1-.822,3.52,5.179,5.179,0,0,1-2.443,2.163,9.651,9.651,0,0,1-3.973.73A12.433,12.433,0,0,1,3826.33,1168.56Z" transform="translate(-3694.693 -1139.426)" fill="#8c8a8d"/>
          <path id="Path_17007" data-name="Path 17007" d="M4270.228,1167.868a6.57,6.57,0,0,1-2.615-3.007,11.489,11.489,0,0,1-.9-4.791v-2.22a12.918,12.918,0,0,1,.864-4.99,6.737,6.737,0,0,1,2.517-3.149,7.1,7.1,0,0,1,3.974-1.082,5.747,5.747,0,0,1,3.741,1.262,7.786,7.786,0,0,1,2.369,3.652,17.976,17.976,0,0,1,.815,5.768v1.29h-11.6v-3.321h7.945l-.016-.209a6.2,6.2,0,0,0-1-3.207,2.659,2.659,0,0,0-2.253-1.139,3.245,3.245,0,0,0-2.748,1.281,5.917,5.917,0,0,0-.971,3.634v2.5a5.076,5.076,0,0,0,1.053,3.444,3.723,3.723,0,0,0,2.961,1.2,4.621,4.621,0,0,0,1.917-.427,5.716,5.716,0,0,0,1.7-1.186l2.566,2.771a9.525,9.525,0,0,1-2.92,2.172,7.558,7.558,0,0,1-3.266.768A7.9,7.9,0,0,1,4270.228,1167.868Z" transform="translate(-4123.151 -1139.426)" fill="#8c8a8d"/>
        </g>
      </g>
      <g id="Group_11772" data-name="Group 11772" transform="translate(10575.34 -7282.298)">
        <path id="Path_17010" data-name="Path 17010" d="M-364.2-23.543h.743a1.05,1.05,0,0,0,.47.772,1.794,1.794,0,0,0,1.053.292,1.642,1.642,0,0,0,.992-.285.86.86,0,0,0,.392-.721.787.787,0,0,0-.273-.616,2.138,2.138,0,0,0-.873-.4l-.76-.2a2.593,2.593,0,0,1-1.2-.585,1.321,1.321,0,0,1-.378-.979,1.476,1.476,0,0,1,.585-1.207,2.341,2.341,0,0,1,1.509-.468,2.231,2.231,0,0,1,1.462.474,1.575,1.575,0,0,1,.6,1.217h-.739a1.036,1.036,0,0,0-.411-.751,1.51,1.51,0,0,0-.94-.275A1.528,1.528,0,0,0-362.9-27a.842.842,0,0,0-.363.706.681.681,0,0,0,.265.552,2.342,2.342,0,0,0,.868.372l.62.164a2.976,2.976,0,0,1,1.322.612,1.338,1.338,0,0,1,.4,1.018,1.556,1.556,0,0,1-.6,1.287,2.535,2.535,0,0,1-1.62.474,2.42,2.42,0,0,1-1.544-.472A1.673,1.673,0,0,1-364.2-23.543Zm6.379-3.671h.714v1.031h.829v.587h-.829v2.537a.616.616,0,0,0,.127.429.524.524,0,0,0,.4.138,1.828,1.828,0,0,0,.3-.021v.6a2.191,2.191,0,0,1-.452.033,1.121,1.121,0,0,1-.838-.263,1.253,1.253,0,0,1-.25-.879V-25.6h-.636v-.587h.636Zm6.794,1.031v4.27h-.678v-.694h-.016a1.4,1.4,0,0,1-1.355.768,1.412,1.412,0,0,1-1.086-.421,1.623,1.623,0,0,1-.392-1.152v-2.772h.714v2.644q0,1.068.985,1.068a1.048,1.048,0,0,0,.815-.326,1.251,1.251,0,0,0,.3-.877v-2.509Zm3.525,4.344a1.639,1.639,0,0,1-1.324-.6,2.427,2.427,0,0,1-.5-1.605,2.435,2.435,0,0,1,.5-1.6,1.618,1.618,0,0,1,1.31-.606,1.594,1.594,0,0,1,.809.205,1.412,1.412,0,0,1,.55.563h.016v-2.349h.714v5.925h-.682v-.723h-.012a1.542,1.542,0,0,1-.567.585A1.566,1.566,0,0,1-347.5-21.839Zm.136-3.79a1.078,1.078,0,0,0-.9.429,1.831,1.831,0,0,0-.333,1.152,1.829,1.829,0,0,0,.333,1.154,1.08,1.08,0,0,0,.9.427,1.073,1.073,0,0,0,.891-.433,1.819,1.819,0,0,0,.337-1.148,1.812,1.812,0,0,0-.339-1.148A1.075,1.075,0,0,0-347.362-25.628Zm5.6-.008a1.089,1.089,0,0,0-.823.343,1.351,1.351,0,0,0-.359.881h2.32a1.3,1.3,0,0,0-.324-.883A1.051,1.051,0,0,0-341.764-25.637Zm1.121,2.5h.7a1.418,1.418,0,0,1-.589.932,1.945,1.945,0,0,1-1.189.365,1.829,1.829,0,0,1-1.441-.591,2.323,2.323,0,0,1-.526-1.6,2.384,2.384,0,0,1,.528-1.614,1.764,1.764,0,0,1,1.406-.612,1.709,1.709,0,0,1,1.363.579,2.29,2.29,0,0,1,.5,1.552v.271h-3.063v.041a1.406,1.406,0,0,0,.337.985,1.172,1.172,0,0,0,.911.37,1.228,1.228,0,0,0,.686-.185A.866.866,0,0,0-340.643-23.136Zm2.458,1.224v-4.27h.673v.682h.016a1.34,1.34,0,0,1,.53-.556,1.623,1.623,0,0,1,.825-.2,1.41,1.41,0,0,1,1.088.421,1.628,1.628,0,0,1,.39,1.152v2.772h-.714v-2.644a1.149,1.149,0,0,0-.246-.795.94.94,0,0,0-.735-.273,1.049,1.049,0,0,0-.809.328,1.231,1.231,0,0,0-.3.87v2.513Zm5.644-5.3h.714v1.031H-331v.587h-.829v2.537a.616.616,0,0,0,.127.429.524.524,0,0,0,.4.138,1.829,1.829,0,0,0,.3-.021v.6a2.192,2.192,0,0,1-.452.033,1.121,1.121,0,0,1-.838-.263,1.253,1.253,0,0,1-.25-.879V-25.6h-.636v-.587h.636Zm5.973,3.231h-2.694v-.665h2.694Zm5.743,2.069-.6-1.7h-2.357l-.6,1.7h-.776l2.184-5.925h.731l2.184,5.925Zm-1.786-5.026-.949,2.7h1.922l-.948-2.7Zm4.137-.275h.714v1.031h.829v.587h-.829v2.537a.616.616,0,0,0,.127.429.525.525,0,0,0,.4.138,1.828,1.828,0,0,0,.3-.021v.6a2.191,2.191,0,0,1-.452.033,1.121,1.121,0,0,1-.838-.263,1.253,1.253,0,0,1-.25-.879V-25.6h-.636v-.587h.636Zm3.324,5.3v-5.925h.714V-25.5h.016a1.292,1.292,0,0,1,.528-.558,1.649,1.649,0,0,1,.827-.2,1.432,1.432,0,0,1,1.1.431,1.623,1.623,0,0,1,.4,1.154v2.759h-.714V-24.54a1.151,1.151,0,0,0-.257-.8.965.965,0,0,0-.753-.283,1.092,1.092,0,0,0-.84.333,1.254,1.254,0,0,0-.31.891v2.488Zm5.517,0v-5.925h.714v5.925Zm4.375-3.724a1.089,1.089,0,0,0-.823.343,1.351,1.351,0,0,0-.359.881h2.32a1.3,1.3,0,0,0-.324-.883A1.051,1.051,0,0,0-305.258-25.637Zm1.121,2.5h.7a1.419,1.419,0,0,1-.589.932,1.945,1.945,0,0,1-1.189.365,1.829,1.829,0,0,1-1.441-.591,2.324,2.324,0,0,1-.526-1.6,2.384,2.384,0,0,1,.528-1.614,1.764,1.764,0,0,1,1.406-.612,1.709,1.709,0,0,1,1.363.579,2.29,2.29,0,0,1,.5,1.552v.271h-3.063v.041a1.407,1.407,0,0,0,.337.985,1.172,1.172,0,0,0,.911.37,1.228,1.228,0,0,0,.686-.185A.866.866,0,0,0-304.137-23.136Zm2.688-4.077h.714v1.031h.829v.587h-.829v2.537a.616.616,0,0,0,.127.429.524.524,0,0,0,.4.138,1.828,1.828,0,0,0,.3-.021v.6a2.191,2.191,0,0,1-.452.033,1.121,1.121,0,0,1-.838-.263,1.253,1.253,0,0,1-.25-.879V-25.6h-.636v-.587h.636Zm4.876,1.577a1.089,1.089,0,0,0-.823.343,1.351,1.351,0,0,0-.359.881h2.32a1.3,1.3,0,0,0-.324-.883A1.051,1.051,0,0,0-296.573-25.637Zm1.121,2.5h.7a1.419,1.419,0,0,1-.589.932,1.945,1.945,0,0,1-1.189.365,1.829,1.829,0,0,1-1.441-.591,2.323,2.323,0,0,1-.526-1.6,2.384,2.384,0,0,1,.528-1.614,1.764,1.764,0,0,1,1.406-.612,1.709,1.709,0,0,1,1.363.579,2.29,2.29,0,0,1,.5,1.552v.271h-3.063v.041a1.406,1.406,0,0,0,.337.985,1.172,1.172,0,0,0,.911.37,1.228,1.228,0,0,0,.686-.185A.866.866,0,0,0-295.452-23.136Zm5.277-4.7h1.991a2.693,2.693,0,0,1,2.057.782,3.045,3.045,0,0,1,.739,2.178,3.057,3.057,0,0,1-.737,2.182,2.692,2.692,0,0,1-2.059.782h-1.991Zm.739.665v4.595h1.2a1.99,1.99,0,0,0,1.548-.593,2.43,2.43,0,0,0,.542-1.7,2.457,2.457,0,0,0-.54-1.708,1.986,1.986,0,0,0-1.55-.6Zm5.837,5.26v-4.27h.673v.7h.016a1.064,1.064,0,0,1,.384-.565,1.056,1.056,0,0,1,.651-.207,2.335,2.335,0,0,1,.287.029v.694a1.253,1.253,0,0,0-.382-.041.856.856,0,0,0-.665.275,1.038,1.038,0,0,0-.25.727v2.661Zm3.612,0v-4.27h.714v4.27Zm.357-4.989a.426.426,0,0,1-.312-.131.426.426,0,0,1-.131-.312.424.424,0,0,1,.131-.314.43.43,0,0,1,.312-.129.434.434,0,0,1,.316.129.424.424,0,0,1,.131.314.426.426,0,0,1-.131.312A.431.431,0,0,1-279.63-26.9Zm5.808.719-1.568,4.27h-.731l-1.573-4.27h.751l1.178,3.511h.016l1.183-3.511Zm3.131.546a1.088,1.088,0,0,0-.823.343,1.35,1.35,0,0,0-.359.881h2.32a1.3,1.3,0,0,0-.324-.883A1.051,1.051,0,0,0-270.69-25.637Zm1.121,2.5h.7a1.419,1.419,0,0,1-.589.932,1.945,1.945,0,0,1-1.189.365,1.829,1.829,0,0,1-1.441-.591,2.323,2.323,0,0,1-.526-1.6,2.384,2.384,0,0,1,.528-1.614,1.764,1.764,0,0,1,1.406-.612,1.709,1.709,0,0,1,1.363.579,2.29,2.29,0,0,1,.5,1.552v.271h-3.063v.041a1.407,1.407,0,0,0,.337.985,1.172,1.172,0,0,0,.911.37,1.228,1.228,0,0,0,.686-.185A.866.866,0,0,0-269.569-23.136Zm2.458,1.224v-4.27h.673v.682h.016a1.34,1.34,0,0,1,.53-.556,1.624,1.624,0,0,1,.825-.2,1.41,1.41,0,0,1,1.088.421,1.628,1.628,0,0,1,.39,1.152v2.772h-.714v-2.644a1.148,1.148,0,0,0-.246-.795.94.94,0,0,0-.735-.273,1.049,1.049,0,0,0-.809.328,1.231,1.231,0,0,0-.3.87v2.513Zm12.085,0-.6-1.7h-2.357l-.6,1.7h-.776l2.184-5.925h.731l2.184,5.925Zm-1.786-5.026-.948,2.7h1.922l-.948-2.7Zm5.648,5.1a1.639,1.639,0,0,1-1.324-.6,2.427,2.427,0,0,1-.5-1.605,2.436,2.436,0,0,1,.5-1.6,1.618,1.618,0,0,1,1.31-.606,1.593,1.593,0,0,1,.809.205,1.412,1.412,0,0,1,.55.563h.016v-2.349h.714v5.925h-.682v-.723h-.012a1.542,1.542,0,0,1-.567.585A1.566,1.566,0,0,1-251.164-21.839Zm.136-3.79a1.078,1.078,0,0,0-.9.429,1.831,1.831,0,0,0-.333,1.152,1.829,1.829,0,0,0,.333,1.154,1.08,1.08,0,0,0,.9.427,1.073,1.073,0,0,0,.891-.433,1.819,1.819,0,0,0,.337-1.148,1.811,1.811,0,0,0-.339-1.148A1.074,1.074,0,0,0-251.029-25.628Zm7.389-.554-1.568,4.27h-.731l-1.573-4.27h.751l1.178,3.511h.016l1.182-3.511Zm3.131.546a1.088,1.088,0,0,0-.823.343,1.351,1.351,0,0,0-.359.881h2.32a1.3,1.3,0,0,0-.324-.883A1.051,1.051,0,0,0-240.508-25.637Zm1.121,2.5h.7a1.419,1.419,0,0,1-.589.932,1.945,1.945,0,0,1-1.189.365,1.829,1.829,0,0,1-1.441-.591,2.323,2.323,0,0,1-.526-1.6,2.384,2.384,0,0,1,.528-1.614,1.764,1.764,0,0,1,1.406-.612,1.709,1.709,0,0,1,1.363.579,2.29,2.29,0,0,1,.5,1.552v.271H-241.7v.041a1.406,1.406,0,0,0,.337.985,1.172,1.172,0,0,0,.911.37,1.228,1.228,0,0,0,.686-.185A.866.866,0,0,0-239.387-23.136Zm2.458,1.224v-4.27h.673v.7h.016a1.062,1.062,0,0,1,.384-.565,1.056,1.056,0,0,1,.651-.207,2.331,2.331,0,0,1,.287.029v.694a1.253,1.253,0,0,0-.382-.041.856.856,0,0,0-.665.275,1.038,1.038,0,0,0-.25.727v2.661Zm3.8-5.3h.714v1.031h.829v.587h-.829v2.537a.616.616,0,0,0,.127.429.524.524,0,0,0,.4.138,1.829,1.829,0,0,0,.3-.021v.6a2.191,2.191,0,0,1-.452.033,1.121,1.121,0,0,1-.838-.263,1.253,1.253,0,0,1-.25-.879V-25.6h-.636v-.587h.636Zm3.324,5.3v-4.27h.714v4.27Zm.357-4.989a.426.426,0,0,1-.312-.131.426.426,0,0,1-.131-.312.424.424,0,0,1,.131-.314.43.43,0,0,1,.312-.129.435.435,0,0,1,.316.129.424.424,0,0,1,.131.314.426.426,0,0,1-.131.312A.431.431,0,0,1-229.443-26.9Zm2.232,1.9a1.1,1.1,0,0,1,.446-.9,1.8,1.8,0,0,1,1.148-.351,1.7,1.7,0,0,1,1.1.353,1.173,1.173,0,0,1,.464.9h-.682a.678.678,0,0,0-.277-.489,1.039,1.039,0,0,0-.63-.177,1.038,1.038,0,0,0-.628.175.542.542,0,0,0-.238.458q0,.435.71.616l.661.16a2.016,2.016,0,0,1,.909.425.982.982,0,0,1,.265.733,1.092,1.092,0,0,1-.476.914,1.993,1.993,0,0,1-1.224.355,1.842,1.842,0,0,1-1.152-.347,1.269,1.269,0,0,1-.511-.918h.714q.119.682.994.682a1.206,1.206,0,0,0,.684-.17.53.53,0,0,0,.252-.462.468.468,0,0,0-.15-.365,1.246,1.246,0,0,0-.507-.23l-.751-.193Q-227.211-24.13-227.211-25Zm5.008,3.092v-4.27h.714v4.27Zm.357-4.989a.426.426,0,0,1-.312-.131.426.426,0,0,1-.131-.312.424.424,0,0,1,.131-.314.43.43,0,0,1,.312-.129.434.434,0,0,1,.316.129.424.424,0,0,1,.131.314.426.426,0,0,1-.131.312A.431.431,0,0,1-221.846-26.9Zm2.306,4.989v-4.27h.673v.682h.016a1.34,1.34,0,0,1,.53-.556,1.624,1.624,0,0,1,.825-.2,1.41,1.41,0,0,1,1.088.421,1.628,1.628,0,0,1,.39,1.152v2.772h-.714v-2.644a1.148,1.148,0,0,0-.246-.795.94.94,0,0,0-.735-.273,1.049,1.049,0,0,0-.809.328,1.231,1.231,0,0,0-.3.87v2.513Zm7.151-.6a1.094,1.094,0,0,0,.9-.427,1.757,1.757,0,0,0,.341-1.129,1.773,1.773,0,0,0-.341-1.135,1.092,1.092,0,0,0-.9-.429,1.064,1.064,0,0,0-.885.425,1.807,1.807,0,0,0-.331,1.139,1.79,1.79,0,0,0,.331,1.135A1.068,1.068,0,0,0-212.389-22.508Zm.025,2.2a2.045,2.045,0,0,1-1.207-.355,1.348,1.348,0,0,1-.6-.9h.735a.9.9,0,0,0,.4.472,1.328,1.328,0,0,0,.694.177,1.236,1.236,0,0,0,.868-.292,1,1,0,0,0,.318-.772v-.673h-.016a1.485,1.485,0,0,1-.563.56,1.588,1.588,0,0,1-.8.207,1.615,1.615,0,0,1-1.31-.6,2.414,2.414,0,0,1-.493-1.589,2.42,2.42,0,0,1,.495-1.6,1.634,1.634,0,0,1,1.324-.6,1.592,1.592,0,0,1,.813.209,1.548,1.548,0,0,1,.575.583h.012v-.719h.682V-22a1.562,1.562,0,0,1-.526,1.232A2.045,2.045,0,0,1-212.365-20.3Zm4.778-1.7a.452.452,0,0,1-.333.135.452.452,0,0,1-.333-.135.452.452,0,0,1-.136-.333.452.452,0,0,1,.136-.333.452.452,0,0,1,.333-.135.452.452,0,0,1,.333.135.452.452,0,0,1,.135.333A.452.452,0,0,1-207.587-22.007Z" transform="translate(364.196 27.936)" fill="#124eff" stroke="#124eff" stroke-width="0.2"/>
        <path id="Path_17011" data-name="Path 17011" d="M-305.248-27.837v3.8a1.508,1.508,0,0,0,.429,1.115,1.6,1.6,0,0,0,1.185.429,1.6,1.6,0,0,0,1.185-.429,1.508,1.508,0,0,0,.429-1.115v-3.8h.739v3.847a2.074,2.074,0,0,1-.634,1.571,2.385,2.385,0,0,1-1.718.606,2.385,2.385,0,0,1-1.718-.606,2.074,2.074,0,0,1-.634-1.571v-3.847Zm5.922,5.925v-4.27h.673v.682h.016a1.339,1.339,0,0,1,.53-.556,1.623,1.623,0,0,1,.825-.2,1.41,1.41,0,0,1,1.088.421,1.628,1.628,0,0,1,.39,1.152v2.772h-.714v-2.644a1.149,1.149,0,0,0-.246-.795.94.94,0,0,0-.735-.273,1.049,1.049,0,0,0-.809.328,1.231,1.231,0,0,0-.3.87v2.513Zm7.42-4.344a1.639,1.639,0,0,1,1.324.6,2.427,2.427,0,0,1,.5,1.605,2.435,2.435,0,0,1-.5,1.6,1.618,1.618,0,0,1-1.31.606,1.594,1.594,0,0,1-.809-.205,1.413,1.413,0,0,1-.55-.563h-.016v2.119h-.714v-5.695h.677v.723h.016a1.5,1.5,0,0,1,.563-.583A1.575,1.575,0,0,1-291.906-26.257Zm-.14,3.79a1.084,1.084,0,0,0,.9-.427,1.83,1.83,0,0,0,.333-1.154,1.83,1.83,0,0,0-.333-1.154,1.084,1.084,0,0,0-.9-.427,1.067,1.067,0,0,0-.887.435,1.821,1.821,0,0,0-.337,1.146,1.819,1.819,0,0,0,.337,1.148A1.069,1.069,0,0,0-292.046-22.467Zm5.01.021a1.208,1.208,0,0,0,.848-.314,1.008,1.008,0,0,0,.343-.774v-.349l-1.141.07a1.216,1.216,0,0,0-.667.209.579.579,0,0,0-.236.485.592.592,0,0,0,.234.489A.972.972,0,0,0-287.035-22.446Zm-.16.608a1.478,1.478,0,0,1-1.029-.353,1.189,1.189,0,0,1-.392-.928,1.074,1.074,0,0,1,.4-.879,1.949,1.949,0,0,1,1.144-.37l1.224-.07v-.357a.781.781,0,0,0-.246-.612,1,1,0,0,0-.69-.222,1.127,1.127,0,0,0-.661.179.792.792,0,0,0-.324.5h-.69a1.262,1.262,0,0,1,.495-.938,1.854,1.854,0,0,1,1.2-.367,1.774,1.774,0,0,1,1.193.378,1.267,1.267,0,0,1,.441,1.014v2.952h-.677v-.735h-.016a1.477,1.477,0,0,1-.567.587A1.55,1.55,0,0,1-287.2-21.839Zm3.889-.074v-4.27h.673v.7h.016a1.063,1.063,0,0,1,.384-.565,1.056,1.056,0,0,1,.651-.207,2.332,2.332,0,0,1,.287.029v.694a1.252,1.252,0,0,0-.382-.041.856.856,0,0,0-.665.275,1.038,1.038,0,0,0-.25.727v2.661Zm4.834-.534a1.208,1.208,0,0,0,.848-.314,1.008,1.008,0,0,0,.343-.774v-.349l-1.141.07a1.216,1.216,0,0,0-.667.209.579.579,0,0,0-.236.485.592.592,0,0,0,.234.489A.972.972,0,0,0-278.472-22.446Zm-.16.608a1.478,1.478,0,0,1-1.029-.353,1.189,1.189,0,0,1-.392-.928,1.074,1.074,0,0,1,.4-.879,1.949,1.949,0,0,1,1.144-.37l1.224-.07v-.357a.781.781,0,0,0-.246-.612,1,1,0,0,0-.69-.222,1.126,1.126,0,0,0-.661.179.792.792,0,0,0-.324.5h-.69a1.263,1.263,0,0,1,.495-.938,1.854,1.854,0,0,1,1.2-.367,1.773,1.773,0,0,1,1.193.378,1.267,1.267,0,0,1,.441,1.014v2.952h-.677v-.735h-.017a1.476,1.476,0,0,1-.567.587A1.549,1.549,0,0,1-278.633-21.839Zm3.926-.074v-5.925h.714v5.925Zm2.633,0v-5.925h.715v5.925Zm4.308-3.724a1.088,1.088,0,0,0-.823.343,1.351,1.351,0,0,0-.359.881h2.32a1.3,1.3,0,0,0-.324-.883A1.051,1.051,0,0,0-267.765-25.637Zm1.121,2.5h.7a1.419,1.419,0,0,1-.589.932,1.945,1.945,0,0,1-1.189.365,1.83,1.83,0,0,1-1.441-.591,2.323,2.323,0,0,1-.526-1.6,2.384,2.384,0,0,1,.528-1.614,1.764,1.764,0,0,1,1.406-.612,1.709,1.709,0,0,1,1.363.579,2.29,2.29,0,0,1,.5,1.552v.271h-3.063v.041a1.407,1.407,0,0,0,.337.985,1.172,1.172,0,0,0,.911.37,1.228,1.228,0,0,0,.686-.185A.866.866,0,0,0-266.644-23.136Zm2.428,1.224v-5.925h.715v5.925Zm4.308-3.724a1.088,1.088,0,0,0-.823.343,1.351,1.351,0,0,0-.359.881h2.32a1.3,1.3,0,0,0-.324-.883A1.051,1.051,0,0,0-259.909-25.637Zm1.121,2.5h.7a1.419,1.419,0,0,1-.589.932,1.945,1.945,0,0,1-1.189.365,1.83,1.83,0,0,1-1.441-.591,2.323,2.323,0,0,1-.526-1.6,2.384,2.384,0,0,1,.528-1.614,1.764,1.764,0,0,1,1.406-.612,1.709,1.709,0,0,1,1.363.579,2.29,2.29,0,0,1,.5,1.552v.271H-261.1v.041a1.407,1.407,0,0,0,.337.985,1.172,1.172,0,0,0,.911.37,1.228,1.228,0,0,0,.686-.185A.866.866,0,0,0-258.788-23.136Zm4.008,1.3a1.639,1.639,0,0,1-1.324-.6,2.427,2.427,0,0,1-.5-1.605,2.435,2.435,0,0,1,.5-1.6,1.618,1.618,0,0,1,1.31-.606,1.594,1.594,0,0,1,.809.205,1.412,1.412,0,0,1,.55.563h.016v-2.349h.714v5.925h-.682v-.723h-.012a1.542,1.542,0,0,1-.567.585A1.565,1.565,0,0,1-254.78-21.839Zm.136-3.79a1.078,1.078,0,0,0-.9.429,1.831,1.831,0,0,0-.333,1.152,1.829,1.829,0,0,0,.333,1.154,1.08,1.08,0,0,0,.9.427,1.073,1.073,0,0,0,.891-.433,1.819,1.819,0,0,0,.337-1.148,1.812,1.812,0,0,0-.339-1.148A1.074,1.074,0,0,0-254.644-25.628Zm8.809,3.716h-2.238v-5.925h2.246a1.814,1.814,0,0,1,1.23.406,1.348,1.348,0,0,1,.47,1.072,1.319,1.319,0,0,1-.3.84,1.178,1.178,0,0,1-.725.454v.033a1.516,1.516,0,0,1,.963.472,1.407,1.407,0,0,1,.359.985,1.5,1.5,0,0,1-.532,1.224A2.253,2.253,0,0,1-245.835-21.913Zm-1.5-5.272v1.9h1.109a1.68,1.68,0,0,0,1-.255.856.856,0,0,0,.347-.735.819.819,0,0,0-.292-.675,1.287,1.287,0,0,0-.829-.236Zm0,4.619h1.388a1.636,1.636,0,0,0,1.014-.267.926.926,0,0,0,.345-.78q0-1.035-1.429-1.035h-1.318Zm8.656-3.617v4.27h-.677v-.694h-.016a1.4,1.4,0,0,1-1.355.768,1.411,1.411,0,0,1-1.086-.421,1.623,1.623,0,0,1-.392-1.152v-2.772h.714v2.644q0,1.068.985,1.068a1.048,1.048,0,0,0,.815-.326,1.251,1.251,0,0,0,.3-.877v-2.509ZM-236.911-25a1.1,1.1,0,0,1,.445-.9,1.8,1.8,0,0,1,1.148-.351,1.7,1.7,0,0,1,1.1.353,1.173,1.173,0,0,1,.464.9h-.682a.678.678,0,0,0-.277-.489,1.039,1.039,0,0,0-.63-.177,1.039,1.039,0,0,0-.628.175.542.542,0,0,0-.238.458q0,.435.71.616l.661.16a2.017,2.017,0,0,1,.909.425.982.982,0,0,1,.265.733,1.092,1.092,0,0,1-.476.914,1.993,1.993,0,0,1-1.224.355,1.842,1.842,0,0,1-1.152-.347,1.269,1.269,0,0,1-.511-.918h.714q.119.682.994.682a1.206,1.206,0,0,0,.684-.17.53.53,0,0,0,.253-.462.468.468,0,0,0-.15-.365,1.247,1.247,0,0,0-.507-.23l-.751-.193Q-236.911-24.13-236.911-25Zm4.94,3.092v-4.27h.714v4.27Zm.357-4.989a.426.426,0,0,1-.312-.131.426.426,0,0,1-.131-.312.424.424,0,0,1,.131-.314.43.43,0,0,1,.312-.129.434.434,0,0,1,.316.129.424.424,0,0,1,.131.314.426.426,0,0,1-.131.312A.431.431,0,0,1-231.613-26.9Zm2.239,4.989v-4.27h.673v.682h.016a1.339,1.339,0,0,1,.53-.556,1.623,1.623,0,0,1,.825-.2,1.41,1.41,0,0,1,1.088.421,1.628,1.628,0,0,1,.39,1.152v2.772h-.714v-2.644a1.148,1.148,0,0,0-.246-.795.94.94,0,0,0-.735-.273,1.049,1.049,0,0,0-.809.328,1.231,1.231,0,0,0-.3.87v2.513Zm7.059-3.724a1.088,1.088,0,0,0-.823.343,1.351,1.351,0,0,0-.359.881h2.32a1.3,1.3,0,0,0-.324-.883A1.051,1.051,0,0,0-222.315-25.637Zm1.121,2.5h.7a1.419,1.419,0,0,1-.589.932,1.945,1.945,0,0,1-1.189.365,1.829,1.829,0,0,1-1.441-.591,2.323,2.323,0,0,1-.526-1.6,2.384,2.384,0,0,1,.528-1.614,1.764,1.764,0,0,1,1.406-.612,1.709,1.709,0,0,1,1.363.579,2.29,2.29,0,0,1,.5,1.552v.271H-223.5v.041a1.407,1.407,0,0,0,.337.985,1.172,1.172,0,0,0,.911.37,1.228,1.228,0,0,0,.686-.185A.866.866,0,0,0-221.194-23.136ZM-218.878-25a1.1,1.1,0,0,1,.445-.9,1.8,1.8,0,0,1,1.148-.351,1.7,1.7,0,0,1,1.1.353,1.174,1.174,0,0,1,.464.9h-.682a.678.678,0,0,0-.277-.489,1.039,1.039,0,0,0-.63-.177,1.039,1.039,0,0,0-.628.175.542.542,0,0,0-.238.458q0,.435.71.616l.661.16a2.016,2.016,0,0,1,.909.425.982.982,0,0,1,.265.733,1.092,1.092,0,0,1-.476.914,1.993,1.993,0,0,1-1.224.355,1.841,1.841,0,0,1-1.152-.347,1.269,1.269,0,0,1-.511-.918h.714q.119.682.994.682a1.206,1.206,0,0,0,.684-.17.53.53,0,0,0,.253-.462.468.468,0,0,0-.15-.365,1.246,1.246,0,0,0-.507-.23l-.751-.193Q-218.878-24.13-218.878-25Zm4.83,0a1.1,1.1,0,0,1,.445-.9,1.8,1.8,0,0,1,1.148-.351,1.7,1.7,0,0,1,1.1.353,1.173,1.173,0,0,1,.464.9h-.682a.678.678,0,0,0-.277-.489,1.039,1.039,0,0,0-.63-.177,1.038,1.038,0,0,0-.628.175.542.542,0,0,0-.238.458q0,.435.71.616l.661.16a2.016,2.016,0,0,1,.909.425.982.982,0,0,1,.265.733,1.092,1.092,0,0,1-.476.914,1.993,1.993,0,0,1-1.224.355,1.842,1.842,0,0,1-1.152-.347,1.269,1.269,0,0,1-.511-.918h.714q.119.682.994.682a1.206,1.206,0,0,0,.684-.17.53.53,0,0,0,.253-.462.468.468,0,0,0-.15-.365,1.246,1.246,0,0,0-.507-.23l-.751-.193Q-214.048-24.13-214.048-25Zm12.652.641a2.559,2.559,0,0,1-.663,1.876,2.478,2.478,0,0,1-1.85.673,2.5,2.5,0,0,1-1.977-.84,3.292,3.292,0,0,1-.737-2.252,3.19,3.19,0,0,1,.735-2.209,2.524,2.524,0,0,1,1.979-.821,2.577,2.577,0,0,1,1.636.528,2.247,2.247,0,0,1,.84,1.41h-.776a1.754,1.754,0,0,0-.63-.928,1.752,1.752,0,0,0-1.07-.328,1.768,1.768,0,0,0-1.435.622,2.609,2.609,0,0,0-.519,1.722,2.726,2.726,0,0,0,.526,1.766,1.741,1.741,0,0,0,1.429.649,1.788,1.788,0,0,0,1.281-.466,1.589,1.589,0,0,0,.493-1.209v-.107h-1.671v-.649h2.41Zm1.75,2.451v-4.27h.673v.7h.016a1.063,1.063,0,0,1,.384-.565,1.056,1.056,0,0,1,.651-.207,2.333,2.333,0,0,1,.287.029v.694a1.253,1.253,0,0,0-.382-.041.856.856,0,0,0-.665.275,1.038,1.038,0,0,0-.25.727v2.661Zm5.072.074a1.847,1.847,0,0,1-1.437-.6,2.308,2.308,0,0,1-.542-1.612,2.308,2.308,0,0,1,.542-1.612,1.847,1.847,0,0,1,1.437-.6,1.842,1.842,0,0,1,1.433.6,2.308,2.308,0,0,1,.542,1.612,2.309,2.309,0,0,1-.542,1.61A1.839,1.839,0,0,1-194.574-21.839Zm-.916-1.047a1.119,1.119,0,0,0,.916.419,1.11,1.11,0,0,0,.911-.417,1.805,1.805,0,0,0,.337-1.164,1.805,1.805,0,0,0-.337-1.164,1.11,1.11,0,0,0-.911-.417,1.114,1.114,0,0,0-.914.419,1.8,1.8,0,0,0-.339,1.162A1.807,1.807,0,0,0-195.489-22.886Zm9.958-3.3-1.191,4.27h-.727l-.965-3.305h-.016l-.961,3.305h-.727l-1.195-4.27h.71l.854,3.474h.016l.965-3.474h.69l.969,3.474h.016l.854-3.474Zm1.73-1.031h.714v1.031h.829v.587h-.829v2.537a.616.616,0,0,0,.127.429.524.524,0,0,0,.4.138,1.829,1.829,0,0,0,.3-.021v.6a2.192,2.192,0,0,1-.452.033,1.121,1.121,0,0,1-.838-.263,1.253,1.253,0,0,1-.25-.879V-25.6h-.636v-.587h.636Zm3.257,5.3v-5.925h.714V-25.5h.016a1.292,1.292,0,0,1,.528-.558,1.648,1.648,0,0,1,.827-.2,1.432,1.432,0,0,1,1.1.431,1.623,1.623,0,0,1,.4,1.154v2.759h-.714V-24.54a1.151,1.151,0,0,0-.257-.8.965.965,0,0,0-.753-.283,1.092,1.092,0,0,0-.84.333,1.254,1.254,0,0,0-.31.891v2.488Zm6.349-.094a.452.452,0,0,1-.333.135.452.452,0,0,1-.333-.135A.452.452,0,0,1-175-22.34a.452.452,0,0,1,.135-.333.452.452,0,0,1,.333-.135.452.452,0,0,1,.333.135.452.452,0,0,1,.135.333A.452.452,0,0,1-174.2-22.007Z" transform="translate(319.185 39.579)" fill="#124eff" stroke="#124eff" stroke-width="0.2"/>
      </g>
      <g id="Group_11773" data-name="Group 11773" transform="translate(10548 -7328.303)">
        <ellipse id="Ellipse_1" data-name="Ellipse 1" cx="19.895" cy="19.895" rx="19.895" ry="19.895" transform="translate(0 0.185)" fill="#004eff"/>
        <path id="Path_1" data-name="Path 1" d="M2277.719,492.761l11.757-31.738a13.641,13.641,0,0,1,4.1-.492,18.167,18.167,0,0,1,4.74.616l11.153,31.565a13.9,13.9,0,0,1-2.474,2.745,20.032,20.032,0,0,1-3.829,2.708l-4.194-11.712h-10.7l-4.222,11.724a19.57,19.57,0,0,1-3.583-2.45A16.918,16.918,0,0,1,2277.719,492.761Z" transform="translate(-2273.693 -460.531)" fill="#fdfdfe"/>
        <path id="Path_2" data-name="Path 2" d="M2469.688,463.333" transform="translate(-2446.961 -463.173)" fill="none" stroke="#707070" stroke-width="1"/>
        <path id="Polygon_1" data-name="Polygon 1" d="M3.349,0,6.7,9.061H0Z" transform="translate(16.546 10.427)" fill="#004eff"/>
      </g>
    </g>
  </g>
</svg>
