<svg xmlns="http://www.w3.org/2000/svg" xmlns:xlink="http://www.w3.org/1999/xlink" width="234" height="81" viewBox="0 0 234 81">
  <defs>
    <clipPath id="clip-_234x81">
      <rect width="234" height="81"/>
    </clipPath>
  </defs>
  <g id="_234x81" data-name="234x81" clip-path="url(#clip-_234x81)">
    <g id="Group_11778" data-name="Group 11778" transform="translate(-10542 7333.303)">
      <g id="Group_11771" data-name="Group 11771" transform="translate(10595.127 -7320.311)">
        <g id="Group_11770" data-name="Group 11770" transform="translate(0 0)">
          <path id="Path_16997" data-name="Path 16997" d="M460.535,1006.2h11.688v4.386H460.535Zm4.073,20.43a7.05,7.05,0,0,1-1.11-4.313V999.16h4.349v22.462a2.3,2.3,0,0,0,.273,1.227.889.889,0,0,0,.8.43h3.3v4.806H468.1A4.107,4.107,0,0,1,464.608,1026.627Z" transform="translate(-460.535 -995.705)" fill="#8c8a8d"/>
          <path id="Path_16998" data-name="Path 16998" d="M790.715,938.244h4.349v32.276h-4.349Zm11.19,19.075A4.532,4.532,0,0,0,801,954.3a3.205,3.205,0,0,0-2.584-1.07,3.133,3.133,0,0,0-2.475.986,4.074,4.074,0,0,0-.873,2.791l-.382-4.512a7.744,7.744,0,0,1,2.156-3.022,4.735,4.735,0,0,1,3.066-1.049,5.434,5.434,0,0,1,4.685,2.319,11.116,11.116,0,0,1,1.665,6.558v13.221H801.9Z" transform="translate(-775.58 -938.244)" fill="#8c8a8d"/>
          <path id="Path_16999" data-name="Path 16999" d="M1296.987,964.217a1.915,1.915,0,0,0,.346,1.228,1.186,1.186,0,0,0,.983.43h2.991v4.806h-4.064a4.1,4.1,0,0,1-3.393-1.511,6.655,6.655,0,0,1-1.21-4.26V938.443h4.349Z" transform="translate(-1257.197 -938.342)" fill="#8c8a8d"/>
          <path id="Path_17000" data-name="Path 17000" d="M1543.545,1169.908a7.263,7.263,0,0,1-2.893-3.326,12.7,12.7,0,0,1-1-5.3v-2.455a14.311,14.311,0,0,1,.955-5.52,7.457,7.457,0,0,1,2.784-3.483,7.847,7.847,0,0,1,4.394-1.2,6.362,6.362,0,0,1,4.14,1.4,8.623,8.623,0,0,1,2.62,4.04,19.907,19.907,0,0,1,.9,6.38v1.427h-12.827V1158.2h8.788l-.018-.231a6.835,6.835,0,0,0-1.11-3.547,2.94,2.94,0,0,0-2.493-1.259,3.589,3.589,0,0,0-3.039,1.417,6.544,6.544,0,0,0-1.073,4.019v2.77a5.614,5.614,0,0,0,1.164,3.809,4.118,4.118,0,0,0,3.275,1.333,5.107,5.107,0,0,0,2.12-.472,6.305,6.305,0,0,0,1.883-1.312l2.838,3.064a10.533,10.533,0,0,1-3.229,2.4,8.357,8.357,0,0,1-3.612.85A8.729,8.729,0,0,1,1543.545,1169.908Z" transform="translate(-1493.966 -1138.451)" fill="#8c8a8d"/>
          <path id="Path_17001" data-name="Path 17001" d="M1998.029,1006.2h11.586v4.386h-11.586Zm3.782,20.43a7.049,7.049,0,0,1-1.11-4.313V999.16h4.349v22.462a2.3,2.3,0,0,0,.273,1.227.889.889,0,0,0,.8.43h3.492v4.806H2005.3A4.107,4.107,0,0,1,2001.811,1026.627Z" transform="translate(-1934 -995.705)" fill="#8c8a8d"/>
          <path id="Path_17002" data-name="Path 17002" d="M2324.567,941.71h4.33v5.016h-4.33Zm0,8.731h4.33v21.784h-4.33Z" transform="translate(-2245.313 -939.948)" fill="#8c8a8d"/>
          <path id="Path_17003" data-name="Path 17003" d="M2517.828,1156.367h4.422l-7.1,21.784h-3.166l-7.1-21.784h4.422l4.258,14.607Z" transform="translate(-2417.65 -1145.875)" fill="#8c8a8d"/>
          <path id="Path_17004" data-name="Path 17004" d="M2984.382,1169.908a7.266,7.266,0,0,1-2.893-3.326,12.706,12.706,0,0,1-1-5.3v-2.455a14.3,14.3,0,0,1,.955-5.52,7.451,7.451,0,0,1,2.784-3.483,7.845,7.845,0,0,1,4.394-1.2,6.362,6.362,0,0,1,4.14,1.4,8.625,8.625,0,0,1,2.62,4.04,19.9,19.9,0,0,1,.9,6.38v1.427h-12.827V1158.2h8.788l-.018-.231a6.835,6.835,0,0,0-1.11-3.547,2.94,2.94,0,0,0-2.493-1.259,3.588,3.588,0,0,0-3.038,1.417,6.54,6.54,0,0,0-1.074,4.019v2.77a5.609,5.609,0,0,0,1.165,3.809,4.117,4.117,0,0,0,3.275,1.333,5.11,5.11,0,0,0,2.12-.472,6.3,6.3,0,0,0,1.883-1.312l2.838,3.064a10.542,10.542,0,0,1-3.229,2.4,8.358,8.358,0,0,1-3.612.85A8.731,8.731,0,0,1,2984.382,1169.908Z" transform="translate(-2875.049 -1138.451)" fill="#8c8a8d"/>
          <path id="Path_17005" data-name="Path 17005" d="M3475.391,1148.943h4.531v21.784h-4.531Zm9.443,4.774a3.6,3.6,0,0,0-1.473-.283,3.07,3.07,0,0,0-2.539,1.123,4.855,4.855,0,0,0-.9,3.116l-.382-4.932a7.645,7.645,0,0,1,2.138-3.032,4.475,4.475,0,0,1,2.9-1.081,5.613,5.613,0,0,1,2.238.43,4.913,4.913,0,0,1,1.747,1.27l-2.657,4.218A2.827,2.827,0,0,0,3484.834,1153.717Z" transform="translate(-3349.936 -1138.451)" fill="#8c8a8d"/>
          <path id="Path_17006" data-name="Path 17006" d="M3826.836,1170.674a12.027,12.027,0,0,1-2.867-1.081,10.838,10.838,0,0,1-2.411-1.742l2.639-3.778a11.456,11.456,0,0,0,2.938,1.784,7.749,7.749,0,0,0,2.921.609,5.912,5.912,0,0,0,3.011-.619,1.975,1.975,0,0,0,1.028-1.794,1.717,1.717,0,0,0-.509-1.354,2.8,2.8,0,0,0-1.283-.619,21.507,21.507,0,0,0-2.174-.315l-.491-.042c-.17-.014-.334-.035-.492-.063a.968.968,0,0,1-.146-.011,1.08,1.08,0,0,0-.146-.01,16,16,0,0,1-3.257-.7,4.306,4.306,0,0,1-2.138-1.732,6.544,6.544,0,0,1-.864-3.672,7.651,7.651,0,0,1,.864-3.788,5.511,5.511,0,0,1,2.539-2.33,9.628,9.628,0,0,1,4.112-.787,12.355,12.355,0,0,1,2.838.325,12.562,12.562,0,0,1,2.648.945,12.316,12.316,0,0,1,2.392,1.542l-2.6,3.651a11.418,11.418,0,0,0-2.683-1.406,7.824,7.824,0,0,0-2.629-.483,4.883,4.883,0,0,0-2.6.567,1.859,1.859,0,0,0-.891,1.679,1.293,1.293,0,0,0,.491,1.091,2.825,2.825,0,0,0,1.228.514q.737.137,2.138.283.146.021.282.032c.091.007.185.017.282.031h.128a.537.537,0,0,1,.145.021,17.143,17.143,0,0,1,3.475.693,4.663,4.663,0,0,1,2.348,1.836,6.936,6.936,0,0,1,.964,4,7.709,7.709,0,0,1-.909,3.893,5.727,5.727,0,0,1-2.7,2.392,10.677,10.677,0,0,1-4.394.808A13.754,13.754,0,0,1,3826.836,1170.674Z" transform="translate(-3681.24 -1138.451)" fill="#8c8a8d"/>
          <path id="Path_17007" data-name="Path 17007" d="M4270.6,1169.908a7.264,7.264,0,0,1-2.893-3.326,12.7,12.7,0,0,1-1-5.3v-2.455a14.281,14.281,0,0,1,.956-5.52,7.449,7.449,0,0,1,2.783-3.483,7.848,7.848,0,0,1,4.395-1.2,6.359,6.359,0,0,1,4.139,1.4,8.618,8.618,0,0,1,2.62,4.04,19.9,19.9,0,0,1,.9,6.38v1.427h-12.827V1158.2h8.788l-.018-.231a6.842,6.842,0,0,0-1.11-3.547,2.941,2.941,0,0,0-2.493-1.259,3.589,3.589,0,0,0-3.039,1.417,6.546,6.546,0,0,0-1.074,4.019v2.77a5.613,5.613,0,0,0,1.165,3.809,4.117,4.117,0,0,0,3.275,1.333,5.108,5.108,0,0,0,2.12-.472,6.318,6.318,0,0,0,1.883-1.312l2.838,3.064a10.532,10.532,0,0,1-3.229,2.4,8.356,8.356,0,0,1-3.612.85A8.731,8.731,0,0,1,4270.6,1169.908Z" transform="translate(-4107.928 -1138.451)" fill="#8c8a8d"/>
        </g>
      </g>
      <g id="Group_11772" data-name="Group 11772" transform="translate(10578.239 -7277.419)">
        <path id="Path_17010" data-name="Path 17010" d="M-364.2-23.077h.822a1.162,1.162,0,0,0,.52.854,1.985,1.985,0,0,0,1.165.322,1.816,1.816,0,0,0,1.1-.316.951.951,0,0,0,.434-.8.871.871,0,0,0-.3-.681,2.364,2.364,0,0,0-.965-.441l-.84-.218A2.869,2.869,0,0,1-363.592-25a1.461,1.461,0,0,1-.418-1.083,1.633,1.633,0,0,1,.647-1.335,2.589,2.589,0,0,1,1.669-.518,2.467,2.467,0,0,1,1.617.525,1.743,1.743,0,0,1,.668,1.347h-.818a1.146,1.146,0,0,0-.454-.831,1.67,1.67,0,0,0-1.04-.3,1.691,1.691,0,0,0-1.038.3.931.931,0,0,0-.4.781.753.753,0,0,0,.293.611,2.59,2.59,0,0,0,.96.411l.686.182a3.292,3.292,0,0,1,1.462.677,1.48,1.48,0,0,1,.445,1.126,1.721,1.721,0,0,1-.661,1.424,2.8,2.8,0,0,1-1.792.525,2.677,2.677,0,0,1-1.707-.522A1.851,1.851,0,0,1-364.2-23.077Zm7.056-4.06h.79V-26h.917v.649h-.917v2.807a.681.681,0,0,0,.141.475.58.58,0,0,0,.445.152,2.022,2.022,0,0,0,.327-.023v.663a2.423,2.423,0,0,1-.5.036,1.24,1.24,0,0,1-.926-.291,1.386,1.386,0,0,1-.277-.972v-2.847h-.7V-26h.7Zm7.514,1.14v4.723h-.749v-.767h-.018a1.551,1.551,0,0,1-1.5.849,1.561,1.561,0,0,1-1.2-.465,1.8,1.8,0,0,1-.434-1.274V-26h.79v2.925q0,1.181,1.09,1.181a1.159,1.159,0,0,0,.9-.361,1.384,1.384,0,0,0,.329-.97V-26Zm3.9,4.8a1.813,1.813,0,0,1-1.465-.668,2.684,2.684,0,0,1-.556-1.776,2.694,2.694,0,0,1,.554-1.773,1.79,1.79,0,0,1,1.449-.67,1.763,1.763,0,0,1,.895.227,1.562,1.562,0,0,1,.609.622h.018v-2.6h.79v6.553h-.754v-.8h-.014a1.705,1.705,0,0,1-.627.647A1.732,1.732,0,0,1-345.727-21.192Zm.15-4.192a1.192,1.192,0,0,0-.995.475,2.025,2.025,0,0,0-.368,1.274,2.024,2.024,0,0,0,.368,1.276,1.194,1.194,0,0,0,.995.472,1.187,1.187,0,0,0,.985-.479,2.012,2.012,0,0,0,.372-1.269,2,2,0,0,0-.375-1.269A1.188,1.188,0,0,0-345.577-25.384Zm6.193-.009a1.2,1.2,0,0,0-.911.379,1.5,1.5,0,0,0-.4.974h2.566a1.44,1.44,0,0,0-.359-.976A1.162,1.162,0,0,0-339.385-25.393Zm1.24,2.766h.777a1.569,1.569,0,0,1-.652,1.031,2.151,2.151,0,0,1-1.315.4,2.024,2.024,0,0,1-1.594-.654,2.57,2.57,0,0,1-.581-1.771,2.637,2.637,0,0,1,.584-1.785,1.951,1.951,0,0,1,1.555-.677,1.89,1.89,0,0,1,1.508.64,2.532,2.532,0,0,1,.554,1.717v.3H-340.7v.045a1.556,1.556,0,0,0,.372,1.09,1.3,1.3,0,0,0,1.008.409,1.358,1.358,0,0,0,.758-.2A.958.958,0,0,0-338.145-22.627Zm2.718,1.353V-26h.745v.754h.018a1.482,1.482,0,0,1,.586-.615,1.8,1.8,0,0,1,.913-.22,1.56,1.56,0,0,1,1.2.465,1.8,1.8,0,0,1,.431,1.274v3.065h-.79V-24.2a1.27,1.27,0,0,0-.272-.879,1.04,1.04,0,0,0-.813-.3,1.16,1.16,0,0,0-.895.363,1.362,1.362,0,0,0-.336.963v2.779Zm6.243-5.863h.79V-26h.917v.649h-.917v2.807a.682.682,0,0,0,.141.475.58.58,0,0,0,.445.152,2.023,2.023,0,0,0,.327-.023v.663a2.425,2.425,0,0,1-.5.036,1.24,1.24,0,0,1-.926-.291,1.386,1.386,0,0,1-.277-.972v-2.847h-.7V-26h.7Zm6.606,3.574h-2.979V-24.3h2.979Zm6.352,2.289-.659-1.876h-2.607l-.658,1.876h-.858l2.416-6.553h.808l2.416,6.553Zm-1.975-5.559-1.049,2.988h2.125l-1.049-2.988Zm4.576-.3h.79V-26h.917v.649h-.917v2.807a.681.681,0,0,0,.141.475.58.58,0,0,0,.445.152,2.022,2.022,0,0,0,.327-.023v.663a2.423,2.423,0,0,1-.5.036,1.24,1.24,0,0,1-.926-.291,1.386,1.386,0,0,1-.277-.972v-2.847h-.7V-26h.7Zm3.677,5.863v-6.553h.79v2.584h.018a1.429,1.429,0,0,1,.584-.618,1.824,1.824,0,0,1,.915-.218,1.584,1.584,0,0,1,1.217.477,1.8,1.8,0,0,1,.445,1.276v3.052h-.79V-24.18a1.273,1.273,0,0,0-.284-.886,1.067,1.067,0,0,0-.833-.313,1.208,1.208,0,0,0-.929.368,1.387,1.387,0,0,0-.343.985v2.752Zm6.1,0v-6.553h.79v6.553Zm4.839-4.119a1.2,1.2,0,0,0-.911.379,1.494,1.494,0,0,0-.4.974h2.566a1.441,1.441,0,0,0-.359-.976A1.163,1.163,0,0,0-299.008-25.393Zm1.24,2.766h.777a1.569,1.569,0,0,1-.652,1.031,2.151,2.151,0,0,1-1.315.4,2.023,2.023,0,0,1-1.594-.654,2.57,2.57,0,0,1-.581-1.771,2.637,2.637,0,0,1,.584-1.785,1.951,1.951,0,0,1,1.555-.677,1.891,1.891,0,0,1,1.508.64,2.533,2.533,0,0,1,.554,1.717v.3h-3.388v.045a1.556,1.556,0,0,0,.372,1.09,1.3,1.3,0,0,0,1.008.409,1.358,1.358,0,0,0,.758-.2A.958.958,0,0,0-297.768-22.627Zm2.973-4.51h.79V-26h.917v.649H-294v2.807a.681.681,0,0,0,.141.475.58.58,0,0,0,.445.152,2.023,2.023,0,0,0,.327-.023v.663a2.424,2.424,0,0,1-.5.036,1.24,1.24,0,0,1-.926-.291,1.386,1.386,0,0,1-.277-.972v-2.847h-.7V-26h.7Zm5.393,1.744a1.2,1.2,0,0,0-.911.379,1.494,1.494,0,0,0-.4.974h2.566a1.441,1.441,0,0,0-.359-.976A1.162,1.162,0,0,0-289.4-25.393Zm1.24,2.766h.777a1.569,1.569,0,0,1-.652,1.031,2.151,2.151,0,0,1-1.315.4,2.023,2.023,0,0,1-1.594-.654,2.57,2.57,0,0,1-.581-1.771,2.637,2.637,0,0,1,.584-1.785,1.951,1.951,0,0,1,1.555-.677,1.891,1.891,0,0,1,1.508.64,2.533,2.533,0,0,1,.554,1.717v.3h-3.388v.045a1.556,1.556,0,0,0,.372,1.09,1.3,1.3,0,0,0,1.008.409,1.358,1.358,0,0,0,.758-.2A.958.958,0,0,0-288.162-22.627Zm5.837-5.2h2.2a2.979,2.979,0,0,1,2.275.865,3.368,3.368,0,0,1,.817,2.409,3.381,3.381,0,0,1-.815,2.414,2.978,2.978,0,0,1-2.278.865h-2.2Zm.818.736v5.082h1.331a2.2,2.2,0,0,0,1.712-.656,2.688,2.688,0,0,0,.6-1.878,2.718,2.718,0,0,0-.6-1.889,2.2,2.2,0,0,0-1.714-.658Zm6.456,5.818V-26h.745v.772h.018a1.176,1.176,0,0,1,.425-.624,1.168,1.168,0,0,1,.72-.229,2.582,2.582,0,0,1,.318.032v.767a1.386,1.386,0,0,0-.422-.045.947.947,0,0,0-.736.3,1.148,1.148,0,0,0-.277.8v2.943Zm3.995,0V-26h.79v4.723Zm.4-5.518a.471.471,0,0,1-.345-.145.471.471,0,0,1-.145-.345.469.469,0,0,1,.145-.347.475.475,0,0,1,.345-.143.48.48,0,0,1,.35.143.469.469,0,0,1,.145.347.471.471,0,0,1-.145.345A.477.477,0,0,1-270.662-26.792Zm6.424.795-1.735,4.723h-.808L-268.52-26h.831l1.3,3.883h.018L-265.059-26Zm3.463.6a1.2,1.2,0,0,0-.911.379,1.494,1.494,0,0,0-.4.974h2.566a1.441,1.441,0,0,0-.359-.976A1.163,1.163,0,0,0-260.774-25.393Zm1.24,2.766h.777a1.569,1.569,0,0,1-.652,1.031,2.152,2.152,0,0,1-1.315.4,2.023,2.023,0,0,1-1.594-.654,2.57,2.57,0,0,1-.581-1.771,2.637,2.637,0,0,1,.584-1.785,1.951,1.951,0,0,1,1.555-.677,1.89,1.89,0,0,1,1.508.64,2.532,2.532,0,0,1,.554,1.717v.3h-3.388v.045a1.556,1.556,0,0,0,.372,1.09,1.3,1.3,0,0,0,1.008.409,1.358,1.358,0,0,0,.758-.2A.958.958,0,0,0-259.534-22.627Zm2.719,1.353V-26h.745v.754h.018a1.482,1.482,0,0,1,.586-.615,1.8,1.8,0,0,1,.913-.22,1.56,1.56,0,0,1,1.2.465,1.8,1.8,0,0,1,.431,1.274v3.065h-.79V-24.2a1.27,1.27,0,0,0-.272-.879,1.039,1.039,0,0,0-.813-.3,1.16,1.16,0,0,0-.895.363,1.362,1.362,0,0,0-.336.963v2.779Zm13.366,0-.658-1.876h-2.607l-.658,1.876h-.858l2.416-6.553h.808l2.416,6.553Zm-1.976-5.559-1.049,2.988h2.125l-1.049-2.988Zm6.247,5.64a1.813,1.813,0,0,1-1.465-.668,2.684,2.684,0,0,1-.556-1.776,2.694,2.694,0,0,1,.554-1.773,1.79,1.79,0,0,1,1.449-.67,1.762,1.762,0,0,1,.895.227,1.562,1.562,0,0,1,.609.622h.018v-2.6h.79v6.553h-.754v-.8h-.014a1.7,1.7,0,0,1-.627.647A1.732,1.732,0,0,1-239.178-21.192Zm.15-4.192a1.192,1.192,0,0,0-.995.475,2.025,2.025,0,0,0-.368,1.274,2.024,2.024,0,0,0,.368,1.276,1.194,1.194,0,0,0,.995.472,1.187,1.187,0,0,0,.985-.479,2.012,2.012,0,0,0,.372-1.269,2,2,0,0,0-.375-1.269A1.188,1.188,0,0,0-239.028-25.384Zm8.173-.613-1.735,4.723h-.808L-235.138-26h.831l1.3,3.883h.018L-231.677-26Zm3.463.6a1.2,1.2,0,0,0-.911.379,1.494,1.494,0,0,0-.4.974h2.566a1.441,1.441,0,0,0-.359-.976A1.163,1.163,0,0,0-227.392-25.393Zm1.24,2.766h.777a1.569,1.569,0,0,1-.652,1.031,2.151,2.151,0,0,1-1.315.4,2.023,2.023,0,0,1-1.594-.654,2.569,2.569,0,0,1-.581-1.771,2.637,2.637,0,0,1,.584-1.785,1.951,1.951,0,0,1,1.555-.677,1.891,1.891,0,0,1,1.508.64,2.533,2.533,0,0,1,.554,1.717v.3H-228.7v.045a1.556,1.556,0,0,0,.372,1.09,1.3,1.3,0,0,0,1.008.409,1.358,1.358,0,0,0,.758-.2A.958.958,0,0,0-226.152-22.627Zm2.719,1.353V-26h.745v.772h.018a1.175,1.175,0,0,1,.425-.624,1.168,1.168,0,0,1,.72-.229,2.579,2.579,0,0,1,.318.032v.767a1.386,1.386,0,0,0-.422-.045.947.947,0,0,0-.736.3,1.148,1.148,0,0,0-.277.8v2.943Zm4.208-5.863h.79V-26h.917v.649h-.917v2.807a.682.682,0,0,0,.141.475.58.58,0,0,0,.445.152,2.023,2.023,0,0,0,.327-.023v.663a2.424,2.424,0,0,1-.5.036,1.24,1.24,0,0,1-.926-.291,1.386,1.386,0,0,1-.277-.972v-2.847h-.7V-26h.7Zm3.677,5.863V-26h.79v4.723Zm.4-5.518a.471.471,0,0,1-.345-.145.472.472,0,0,1-.145-.345.469.469,0,0,1,.145-.347.475.475,0,0,1,.345-.143.481.481,0,0,1,.35.143.469.469,0,0,1,.145.347.472.472,0,0,1-.145.345A.477.477,0,0,1-215.153-26.792Zm2.469,2.1a1.214,1.214,0,0,1,.493-1,1.989,1.989,0,0,1,1.269-.388,1.881,1.881,0,0,1,1.217.391,1.3,1.3,0,0,1,.513.99h-.754a.749.749,0,0,0-.307-.54,1.149,1.149,0,0,0-.7-.2,1.148,1.148,0,0,0-.695.193.6.6,0,0,0-.263.506q0,.481.786.681l.731.177a2.23,2.23,0,0,1,1.006.47,1.086,1.086,0,0,1,.293.811,1.208,1.208,0,0,1-.527,1.01,2.2,2.2,0,0,1-1.353.393,2.037,2.037,0,0,1-1.274-.384,1.4,1.4,0,0,1-.565-1.015h.79q.132.754,1.1.754a1.334,1.334,0,0,0,.756-.188.587.587,0,0,0,.279-.511.518.518,0,0,0-.166-.4,1.378,1.378,0,0,0-.561-.254l-.831-.213Q-212.685-23.726-212.685-24.693Zm5.539,3.42V-26h.79v4.723Zm.4-5.518a.472.472,0,0,1-.345-.145.471.471,0,0,1-.145-.345.469.469,0,0,1,.145-.347.475.475,0,0,1,.345-.143.48.48,0,0,1,.35.143.469.469,0,0,1,.145.347.471.471,0,0,1-.145.345A.477.477,0,0,1-206.751-26.792Zm2.551,5.518V-26h.745v.754h.018a1.482,1.482,0,0,1,.586-.615,1.8,1.8,0,0,1,.913-.22,1.56,1.56,0,0,1,1.2.465,1.8,1.8,0,0,1,.431,1.274v3.065h-.79V-24.2a1.27,1.27,0,0,0-.272-.879,1.039,1.039,0,0,0-.813-.3,1.16,1.16,0,0,0-.895.363,1.362,1.362,0,0,0-.336.963v2.779Zm7.909-.659a1.21,1.21,0,0,0,.995-.472,1.943,1.943,0,0,0,.377-1.249,1.961,1.961,0,0,0-.377-1.256,1.208,1.208,0,0,0-.995-.475,1.177,1.177,0,0,0-.979.47,2,2,0,0,0-.366,1.26,1.979,1.979,0,0,0,.366,1.256A1.181,1.181,0,0,0-196.291-21.932Zm.027,2.439a2.261,2.261,0,0,1-1.335-.393,1.491,1.491,0,0,1-.658-1h.813a.993.993,0,0,0,.445.522,1.469,1.469,0,0,0,.768.2,1.368,1.368,0,0,0,.96-.322,1.1,1.1,0,0,0,.352-.854v-.745h-.018a1.642,1.642,0,0,1-.622.62,1.756,1.756,0,0,1-.89.229A1.786,1.786,0,0,1-197.9-21.9a2.67,2.67,0,0,1-.545-1.758,2.677,2.677,0,0,1,.547-1.767,1.807,1.807,0,0,1,1.465-.659,1.76,1.76,0,0,1,.9.232,1.712,1.712,0,0,1,.636.645h.014V-26h.754v4.628a1.728,1.728,0,0,1-.581,1.362A2.262,2.262,0,0,1-196.264-19.494Zm5.284-1.885a.5.5,0,0,1-.368.15.5.5,0,0,1-.368-.15.5.5,0,0,1-.15-.368.5.5,0,0,1,.15-.368.5.5,0,0,1,.368-.15.5.5,0,0,1,.368.15.5.5,0,0,1,.15.368A.5.5,0,0,1-190.979-21.378Z" transform="translate(364.196 27.936)" fill="#124eff" stroke="#124eff" stroke-width="0.2"/>
        <path id="Path_17011" data-name="Path 17011" d="M-305.17-27.827v4.2a1.668,1.668,0,0,0,.475,1.233,1.77,1.77,0,0,0,1.31.475,1.771,1.771,0,0,0,1.31-.475,1.668,1.668,0,0,0,.475-1.233v-4.2h.818v4.255a2.294,2.294,0,0,1-.7,1.737,2.638,2.638,0,0,1-1.9.67,2.638,2.638,0,0,1-1.9-.67,2.294,2.294,0,0,1-.7-1.737v-4.255Zm6.55,6.553V-26h.745v.754h.018a1.481,1.481,0,0,1,.586-.615,1.8,1.8,0,0,1,.913-.22,1.559,1.559,0,0,1,1.2.465,1.8,1.8,0,0,1,.431,1.274v3.065h-.79V-24.2a1.27,1.27,0,0,0-.272-.879,1.04,1.04,0,0,0-.813-.3,1.16,1.16,0,0,0-.895.363,1.362,1.362,0,0,0-.336.963v2.779Zm8.207-4.8a1.813,1.813,0,0,1,1.465.668,2.684,2.684,0,0,1,.556,1.776,2.694,2.694,0,0,1-.554,1.773,1.79,1.79,0,0,1-1.449.67,1.763,1.763,0,0,1-.895-.227,1.562,1.562,0,0,1-.609-.622h-.018V-19.7h-.79V-26h.749v.8h.018a1.655,1.655,0,0,1,.622-.645A1.742,1.742,0,0,1-290.413-26.079Zm-.154,4.192a1.2,1.2,0,0,0,1-.472,2.024,2.024,0,0,0,.368-1.276,2.024,2.024,0,0,0-.368-1.276,1.2,1.2,0,0,0-1-.472,1.18,1.18,0,0,0-.981.481,2.014,2.014,0,0,0-.372,1.267,2.012,2.012,0,0,0,.372,1.269A1.182,1.182,0,0,0-290.567-21.887Zm5.542.023a1.336,1.336,0,0,0,.938-.347,1.115,1.115,0,0,0,.379-.856v-.386l-1.262.077a1.345,1.345,0,0,0-.738.232.64.64,0,0,0-.261.536.655.655,0,0,0,.259.54A1.075,1.075,0,0,0-285.026-21.864Zm-.177.672a1.635,1.635,0,0,1-1.138-.391,1.315,1.315,0,0,1-.434-1.026,1.188,1.188,0,0,1,.447-.972,2.155,2.155,0,0,1,1.265-.409l1.353-.077v-.4a.864.864,0,0,0-.272-.677,1.1,1.1,0,0,0-.763-.245,1.246,1.246,0,0,0-.731.2.875.875,0,0,0-.359.552h-.763a1.4,1.4,0,0,1,.547-1.038,2.05,2.05,0,0,1,1.324-.406,1.962,1.962,0,0,1,1.319.418,1.4,1.4,0,0,1,.488,1.122v3.265h-.749v-.813h-.018a1.634,1.634,0,0,1-.627.649A1.714,1.714,0,0,1-285.2-21.192Zm4.3-.082V-26h.745v.772h.018a1.176,1.176,0,0,1,.425-.624,1.168,1.168,0,0,1,.72-.229,2.581,2.581,0,0,1,.318.032v.767a1.385,1.385,0,0,0-.422-.045.947.947,0,0,0-.736.3,1.148,1.148,0,0,0-.277.8v2.943Zm5.346-.59a1.336,1.336,0,0,0,.938-.347,1.115,1.115,0,0,0,.379-.856v-.386l-1.263.077a1.345,1.345,0,0,0-.738.232.64.64,0,0,0-.261.536.655.655,0,0,0,.259.54A1.076,1.076,0,0,0-275.555-21.864Zm-.177.672a1.635,1.635,0,0,1-1.138-.391,1.315,1.315,0,0,1-.434-1.026,1.188,1.188,0,0,1,.447-.972,2.155,2.155,0,0,1,1.265-.409l1.353-.077v-.4a.864.864,0,0,0-.272-.677,1.1,1.1,0,0,0-.763-.245,1.246,1.246,0,0,0-.731.2.875.875,0,0,0-.359.552h-.763a1.4,1.4,0,0,1,.547-1.038,2.05,2.05,0,0,1,1.324-.406,1.962,1.962,0,0,1,1.319.418,1.4,1.4,0,0,1,.488,1.122v3.265h-.749v-.813h-.018a1.633,1.633,0,0,1-.627.649A1.714,1.714,0,0,1-275.732-21.192Zm4.343-.082v-6.553h.79v6.553Zm2.912,0v-6.553h.79v6.553Zm4.765-4.119a1.2,1.2,0,0,0-.911.379,1.494,1.494,0,0,0-.4.974h2.566a1.44,1.44,0,0,0-.359-.976A1.163,1.163,0,0,0-263.712-25.393Zm1.24,2.766h.777a1.569,1.569,0,0,1-.652,1.031,2.151,2.151,0,0,1-1.315.4,2.024,2.024,0,0,1-1.594-.654,2.57,2.57,0,0,1-.581-1.771,2.637,2.637,0,0,1,.584-1.785,1.951,1.951,0,0,1,1.555-.677,1.891,1.891,0,0,1,1.508.64,2.533,2.533,0,0,1,.554,1.717v.3h-3.388v.045a1.556,1.556,0,0,0,.372,1.09,1.3,1.3,0,0,0,1.008.409,1.359,1.359,0,0,0,.759-.2A.958.958,0,0,0-262.472-22.627Zm2.685,1.353v-6.553h.79v6.553Zm4.765-4.119a1.2,1.2,0,0,0-.91.379,1.494,1.494,0,0,0-.4.974h2.566a1.441,1.441,0,0,0-.359-.976A1.163,1.163,0,0,0-255.022-25.393Zm1.24,2.766h.777a1.569,1.569,0,0,1-.652,1.031,2.151,2.151,0,0,1-1.315.4,2.024,2.024,0,0,1-1.594-.654,2.57,2.57,0,0,1-.581-1.771,2.637,2.637,0,0,1,.584-1.785,1.951,1.951,0,0,1,1.555-.677,1.891,1.891,0,0,1,1.508.64,2.533,2.533,0,0,1,.554,1.717v.3h-3.388v.045a1.556,1.556,0,0,0,.372,1.09,1.3,1.3,0,0,0,1.008.409,1.358,1.358,0,0,0,.758-.2A.958.958,0,0,0-253.783-22.627Zm4.433,1.435a1.813,1.813,0,0,1-1.465-.668,2.684,2.684,0,0,1-.556-1.776,2.694,2.694,0,0,1,.554-1.773,1.79,1.79,0,0,1,1.449-.67,1.763,1.763,0,0,1,.895.227,1.562,1.562,0,0,1,.609.622h.018v-2.6h.79v6.553h-.754v-.8h-.014a1.705,1.705,0,0,1-.627.647A1.731,1.731,0,0,1-249.349-21.192Zm.15-4.192a1.192,1.192,0,0,0-.995.475,2.025,2.025,0,0,0-.368,1.274,2.024,2.024,0,0,0,.368,1.276,1.194,1.194,0,0,0,.995.472,1.187,1.187,0,0,0,.985-.479,2.012,2.012,0,0,0,.372-1.269,2,2,0,0,0-.375-1.269A1.188,1.188,0,0,0-249.2-25.384Zm9.743,4.11h-2.475v-6.553h2.484a2.006,2.006,0,0,1,1.36.45,1.491,1.491,0,0,1,.52,1.185,1.459,1.459,0,0,1-.329.929,1.3,1.3,0,0,1-.8.5v.036a1.677,1.677,0,0,1,1.065.522,1.557,1.557,0,0,1,.4,1.09,1.659,1.659,0,0,1-.588,1.353A2.492,2.492,0,0,1-239.456-21.274Zm-1.658-5.831V-25h1.226a1.858,1.858,0,0,0,1.11-.282.946.946,0,0,0,.384-.813.906.906,0,0,0-.322-.747,1.424,1.424,0,0,0-.917-.261Zm0,5.109h1.535a1.809,1.809,0,0,0,1.122-.3,1.024,1.024,0,0,0,.382-.863q0-1.144-1.58-1.144h-1.458Zm9.574-4v4.723h-.749v-.767h-.018a1.551,1.551,0,0,1-1.5.849,1.561,1.561,0,0,1-1.2-.465,1.8,1.8,0,0,1-.434-1.274V-26h.79v2.925q0,1.181,1.09,1.181a1.159,1.159,0,0,0,.9-.361,1.384,1.384,0,0,0,.329-.97V-26Zm1.954,1.3a1.214,1.214,0,0,1,.493-1,1.989,1.989,0,0,1,1.269-.388,1.881,1.881,0,0,1,1.217.391,1.3,1.3,0,0,1,.513.99h-.754a.75.75,0,0,0-.307-.54,1.149,1.149,0,0,0-.7-.2,1.149,1.149,0,0,0-.695.193.6.6,0,0,0-.263.506q0,.481.786.681l.731.177a2.23,2.23,0,0,1,1.006.47,1.086,1.086,0,0,1,.293.811,1.208,1.208,0,0,1-.527,1.01,2.2,2.2,0,0,1-1.353.393,2.037,2.037,0,0,1-1.274-.384,1.4,1.4,0,0,1-.565-1.015h.79q.132.754,1.1.754a1.334,1.334,0,0,0,.756-.188.587.587,0,0,0,.279-.511.518.518,0,0,0-.166-.4,1.378,1.378,0,0,0-.561-.254l-.831-.213Q-229.585-23.726-229.585-24.693Zm5.464,3.42V-26h.79v4.723Zm.4-5.518a.472.472,0,0,1-.345-.145.472.472,0,0,1-.145-.345.469.469,0,0,1,.145-.347.475.475,0,0,1,.345-.143.481.481,0,0,1,.35.143.469.469,0,0,1,.145.347.472.472,0,0,1-.145.345A.477.477,0,0,1-223.726-26.792Zm2.476,5.518V-26h.745v.754h.018a1.482,1.482,0,0,1,.586-.615,1.8,1.8,0,0,1,.913-.22,1.56,1.56,0,0,1,1.2.465,1.8,1.8,0,0,1,.431,1.274v3.065h-.79V-24.2a1.27,1.27,0,0,0-.273-.879,1.039,1.039,0,0,0-.813-.3,1.16,1.16,0,0,0-.895.363,1.362,1.362,0,0,0-.336.963v2.779Zm7.808-4.119a1.2,1.2,0,0,0-.911.379,1.494,1.494,0,0,0-.4.974h2.566a1.441,1.441,0,0,0-.359-.976A1.163,1.163,0,0,0-213.442-25.393Zm1.24,2.766h.777a1.569,1.569,0,0,1-.652,1.031,2.151,2.151,0,0,1-1.315.4,2.023,2.023,0,0,1-1.594-.654,2.569,2.569,0,0,1-.581-1.771,2.637,2.637,0,0,1,.584-1.785,1.951,1.951,0,0,1,1.555-.677,1.89,1.89,0,0,1,1.508.64,2.533,2.533,0,0,1,.554,1.717v.3h-3.388v.045a1.556,1.556,0,0,0,.372,1.09,1.3,1.3,0,0,0,1.008.409,1.358,1.358,0,0,0,.758-.2A.958.958,0,0,0-212.2-22.627Zm2.562-2.066a1.214,1.214,0,0,1,.493-1,1.989,1.989,0,0,1,1.269-.388,1.881,1.881,0,0,1,1.217.391,1.3,1.3,0,0,1,.513.99h-.754a.75.75,0,0,0-.307-.54,1.149,1.149,0,0,0-.7-.2,1.149,1.149,0,0,0-.695.193.6.6,0,0,0-.263.506q0,.481.786.681l.731.177a2.23,2.23,0,0,1,1.006.47,1.086,1.086,0,0,1,.293.811,1.208,1.208,0,0,1-.527,1.01,2.2,2.2,0,0,1-1.353.393,2.037,2.037,0,0,1-1.274-.384,1.4,1.4,0,0,1-.565-1.015h.79q.132.754,1.1.754a1.334,1.334,0,0,0,.756-.188.587.587,0,0,0,.279-.511.518.518,0,0,0-.166-.4,1.378,1.378,0,0,0-.561-.254l-.831-.213Q-209.64-23.726-209.64-24.693Zm5.342,0a1.214,1.214,0,0,1,.493-1,1.99,1.99,0,0,1,1.269-.388,1.881,1.881,0,0,1,1.217.391,1.3,1.3,0,0,1,.513.99h-.754a.75.75,0,0,0-.307-.54,1.149,1.149,0,0,0-.7-.2,1.149,1.149,0,0,0-.695.193.6.6,0,0,0-.263.506q0,.481.786.681l.731.177a2.23,2.23,0,0,1,1.006.47,1.086,1.086,0,0,1,.293.811,1.208,1.208,0,0,1-.527,1.01,2.2,2.2,0,0,1-1.353.393,2.037,2.037,0,0,1-1.274-.384,1.4,1.4,0,0,1-.565-1.015h.79q.132.754,1.1.754a1.334,1.334,0,0,0,.756-.188.587.587,0,0,0,.279-.511.518.518,0,0,0-.166-.4,1.378,1.378,0,0,0-.561-.254l-.831-.213Q-204.3-23.726-204.3-24.693Zm13.994.708a2.831,2.831,0,0,1-.733,2.075,2.741,2.741,0,0,1-2.046.745,2.764,2.764,0,0,1-2.187-.929,3.641,3.641,0,0,1-.815-2.491,3.528,3.528,0,0,1,.813-2.443,2.791,2.791,0,0,1,2.189-.908,2.85,2.85,0,0,1,1.81.584,2.485,2.485,0,0,1,.929,1.56h-.858a1.94,1.94,0,0,0-.7-1.026,1.938,1.938,0,0,0-1.183-.363,1.956,1.956,0,0,0-1.587.688,2.885,2.885,0,0,0-.574,1.905,3.015,3.015,0,0,0,.581,1.953,1.926,1.926,0,0,0,1.58.718,1.978,1.978,0,0,0,1.417-.515,1.758,1.758,0,0,0,.545-1.337v-.118h-1.848v-.718h2.666Zm1.936,2.711V-26h.745v.772h.018a1.175,1.175,0,0,1,.425-.624,1.168,1.168,0,0,1,.72-.229,2.581,2.581,0,0,1,.318.032v.767a1.386,1.386,0,0,0-.422-.045.947.947,0,0,0-.736.3,1.148,1.148,0,0,0-.277.8v2.943Zm5.61.082a2.043,2.043,0,0,1-1.589-.661,2.552,2.552,0,0,1-.6-1.782,2.552,2.552,0,0,1,.6-1.782,2.043,2.043,0,0,1,1.589-.661,2.037,2.037,0,0,1,1.585.661,2.552,2.552,0,0,1,.6,1.782,2.554,2.554,0,0,1-.6,1.78A2.034,2.034,0,0,1-182.759-21.192Zm-1.013-1.158a1.238,1.238,0,0,0,1.013.463,1.228,1.228,0,0,0,1.008-.461,2,2,0,0,0,.372-1.287,2,2,0,0,0-.372-1.287,1.228,1.228,0,0,0-1.008-.461,1.232,1.232,0,0,0-1.01.463,1.99,1.99,0,0,0-.375,1.285A2,2,0,0,0-183.772-22.35ZM-172.758-26l-1.317,4.723h-.8l-1.067-3.656h-.018l-1.063,3.656h-.8L-179.152-26h.786l.945,3.842h.018L-176.336-26h.763l1.072,3.842h.018l.945-3.842Zm1.913-1.14h.79V-26h.917v.649h-.917v2.807a.681.681,0,0,0,.141.475.58.58,0,0,0,.445.152,2.023,2.023,0,0,0,.327-.023v.663a2.424,2.424,0,0,1-.5.036,1.24,1.24,0,0,1-.926-.291,1.386,1.386,0,0,1-.277-.972v-2.847h-.7V-26h.7Zm3.6,5.863v-6.553h.79v2.584h.018a1.429,1.429,0,0,1,.584-.618,1.823,1.823,0,0,1,.915-.218,1.584,1.584,0,0,1,1.217.477,1.8,1.8,0,0,1,.445,1.276v3.052h-.79V-24.18a1.273,1.273,0,0,0-.284-.886,1.067,1.067,0,0,0-.833-.313,1.208,1.208,0,0,0-.929.368,1.387,1.387,0,0,0-.343.985v2.752Zm7.022-.1a.5.5,0,0,1-.368.15.5.5,0,0,1-.368-.15.5.5,0,0,1-.15-.368.5.5,0,0,1,.15-.368.5.5,0,0,1,.368-.15.5.5,0,0,1,.368.15.5.5,0,0,1,.15.368A.5.5,0,0,1-160.22-21.378Z" transform="translate(320.584 40.814)" fill="#124eff" stroke="#124eff" stroke-width="0.2"/>
      </g>
      <g id="Group_11773" data-name="Group 11773" transform="translate(10548 -7328.303)">
        <ellipse id="Ellipse_1" data-name="Ellipse 1" cx="22.004" cy="22.004" rx="22.004" ry="22.004" transform="translate(0 0.204)" fill="#004eff"/>
        <path id="Path_1" data-name="Path 1" d="M2277.719,496.179l13-35.1a15.085,15.085,0,0,1,4.534-.545,20.1,20.1,0,0,1,5.243.681l12.336,34.913a15.381,15.381,0,0,1-2.737,3.036,22.153,22.153,0,0,1-4.235,3l-4.638-12.954h-11.837l-4.67,12.967a21.639,21.639,0,0,1-3.963-2.71A18.711,18.711,0,0,1,2277.719,496.179Z" transform="translate(-2273.266 -460.531)" fill="#fdfdfe"/>
        <path id="Path_2" data-name="Path 2" d="M2469.688,463.333" transform="translate(-2444.551 -463.156)" fill="none" stroke="#707070" stroke-width="1"/>
        <path id="Polygon_1" data-name="Polygon 1" d="M3.7,0l3.7,10.022H0Z" transform="translate(18.301 11.533)" fill="#004eff"/>
      </g>
    </g>
  </g>
</svg>
